<svg width="90" height="25" viewBox="0 0 90 25" fill="none" xmlns="http://www.w3.org/2000/svg">
<g clip-path="url(#clip0)">
<path d="M70.9716 12.1437H74.4451V24.9044H70.9716V12.1437ZM82.7081 12.1487C79.1852 12.1487 76.3302 15.0036 76.3302 18.5266C76.3302 22.0495 79.1852 24.9094 82.7081 24.9094C86.231 24.9094 89.086 22.0544 89.086 18.5266C89.086 15.0036 86.231 12.1487 82.7081 12.1487ZM82.7081 21.9555C80.813 21.9555 79.2792 20.4216 79.2792 18.5266C79.2792 16.6315 80.813 15.0977 82.7081 15.0977C84.6031 15.0977 86.137 16.6315 86.137 18.5266C86.132 20.4216 84.5982 21.9555 82.7081 21.9555Z" fill="white"/>
<path d="M46.2568 7.60651H42.4716H42.4815C42.3232 7.60651 42.1995 7.56198 42.1054 7.47786C42.0114 7.3888 41.962 7.275 41.962 7.12656V4.69219H46.2469C46.3903 4.69219 46.5586 4.67239 46.7021 4.53385C46.8307 4.41015 46.895 4.25677 46.895 4.07864C46.895 3.90052 46.8307 3.74219 46.6971 3.61354C46.5685 3.47995 46.4101 3.41563 46.232 3.41563H41.962V2.53489C41.962 2.36172 41.8976 2.20833 41.7789 2.08464C41.6552 1.95599 41.4969 1.89167 41.3187 1.89167C41.1406 1.89167 40.9823 1.95599 40.8536 2.08464C40.72 2.21823 40.6557 2.37162 40.6557 2.54974V7.67083C40.6557 8.48724 41.0515 8.88802 41.863 8.88802L46.2765 8.88307C46.4497 8.88307 46.6031 8.82369 46.7318 8.7C46.8604 8.5763 46.9247 8.42291 46.9247 8.23984C46.9247 8.07161 46.8653 7.92317 46.7268 7.78958C46.5982 7.66588 46.4448 7.60651 46.2568 7.60651ZM53.3916 3.42057H50.319C50.1656 3.42057 50.0023 3.44036 49.8638 3.56901C49.7401 3.69271 49.6758 3.85104 49.6758 4.02916C49.6758 4.20729 49.7401 4.36562 49.8687 4.49427C50.0023 4.62292 50.1557 4.69219 50.3338 4.69219H52.7979C52.9513 4.69219 53.07 4.73672 53.1591 4.82578C53.2482 4.91484 53.2927 5.03359 53.2927 5.17708L53.2976 7.12656C53.2976 7.275 53.2531 7.3888 53.1591 7.47291C53.0651 7.56198 52.9364 7.60651 52.7831 7.60651H49.656C49.4927 7.60651 49.369 7.56198 49.27 7.47291C49.176 7.38385 49.1265 7.275 49.1265 7.12656L49.1216 2.52995C49.1216 2.35677 49.0573 2.20339 48.9336 2.07969C48.8099 1.95104 48.6565 1.88672 48.4784 1.88672C48.3002 1.88672 48.1419 1.95599 48.0083 2.08464C47.8797 2.21328 47.8104 2.37162 47.8104 2.54974V7.65598C47.8104 8.47239 48.231 8.88802 49.0573 8.88802H53.3521C54.1784 8.88802 54.594 8.47239 54.594 7.66093V4.61797C54.6039 3.82135 54.208 3.43047 53.3916 3.42057ZM39.1614 3.40573H35.6237C35.5643 3.40573 35.5099 3.40078 35.4851 3.40078C35.3911 3.40078 35.3318 3.36614 35.2823 3.28698C35.1586 3.11875 34.9013 3.05443 34.7034 3.05443C34.5055 3.05443 34.3273 3.13359 34.1888 3.27708C34.0651 3.41068 34.0403 3.55911 34.0403 3.73229V4.49922C34.0354 4.53385 34.0354 4.56849 34.0354 4.60312V8.22994C34.0354 8.40312 34.0997 8.55651 34.2333 8.6901C34.362 8.81875 34.5203 8.88307 34.6984 8.88307C34.8765 8.88307 35.0299 8.82369 35.1536 8.69505C35.2773 8.57135 35.3416 8.41796 35.3416 8.23489V5.17213C35.3416 5.01875 35.3961 4.8901 35.4851 4.80599C35.5791 4.72187 35.7028 4.67734 35.8562 4.67239H39.1763C39.3693 4.67239 39.5078 4.61797 39.6265 4.50911C39.7552 4.38542 39.8195 4.23203 39.8195 4.0539C39.8195 3.87578 39.7502 3.71745 39.6216 3.5888C39.5028 3.47005 39.3445 3.40573 39.1614 3.40573ZM61.5656 3.38099H56.7562C55.9547 3.39583 55.5539 3.80156 55.5588 4.57839C55.5588 4.59323 55.5341 6.27057 55.5341 6.51796V8.24479C55.5341 8.41796 55.5984 8.57135 55.7271 8.7C55.8508 8.82369 56.0041 8.89296 56.1773 8.89296C56.3554 8.89296 56.5138 8.82864 56.6375 8.7C56.7661 8.5664 56.8354 8.41302 56.8354 8.24479V7.10677L56.8403 5.86979L56.8453 4.97916C56.8453 4.7664 56.9443 4.6625 57.1422 4.6625L61.5755 4.65755C61.7289 4.65755 61.8922 4.64271 62.0258 4.50911C62.1495 4.38542 62.2187 4.22708 62.2187 4.0539C62.2187 3.87083 62.1544 3.71745 62.0208 3.5888C61.8971 3.44531 61.7437 3.38099 61.5656 3.38099Z" fill="white"/>
<path d="M60.4177 5.94896C60.2742 5.82526 60.101 5.75599 59.8982 5.75599H58.6414C58.4385 5.75599 58.2653 5.82526 58.1219 5.94896C57.9734 6.0776 57.8992 6.24583 57.8992 6.44375C57.8992 6.64166 57.9734 6.80495 58.1219 6.93854C58.2653 7.06718 58.4385 7.13151 58.6414 7.13151H59.8982C60.101 7.13151 60.2742 7.06718 60.4177 6.93854C60.5661 6.80495 60.6403 6.64166 60.6403 6.44375C60.6453 6.24583 60.5661 6.0776 60.4177 5.94896Z" fill="white"/>
<path d="M45.9252 12.1388V19.6003C45.9252 21.2628 46.4942 22.574 47.6224 23.4992C48.7554 24.4294 50.1359 24.9044 51.7291 24.9044C53.3125 24.9044 54.6979 24.4294 55.831 23.4992C56.9591 22.574 57.5281 21.2628 57.5281 19.6003V12.1388H54.3713V19.6003C54.3713 20.3326 54.1042 20.9115 53.5797 21.3122C53.07 21.7081 52.4466 21.906 51.7291 21.906C51.0117 21.906 50.3883 21.7081 49.8737 21.3122C49.3492 20.9065 49.082 20.3326 49.082 19.6003V12.1388H45.9252Z" fill="white"/>
<path d="M61.5409 21.8268L58.9581 12.1437H62.2188L64.2276 19.6299L66.2117 12.1487H69.4279L66.8451 21.8318C66.5581 22.9154 66.2612 23.6971 65.9495 24.182C65.6427 24.6669 65.0341 24.9094 64.1287 24.9094C63.332 24.9094 62.768 24.6422 62.4266 24.0979C62.0753 23.5536 61.7833 22.7966 61.5409 21.8268ZM40.9081 12.1437V13.1432C39.9927 12.5643 38.924 12.2081 37.776 12.1586C37.682 12.1536 37.588 12.1487 37.499 12.1487C33.976 12.1487 31.1211 15.0036 31.1211 18.5266V18.5315C31.1211 22.0544 33.976 24.9143 37.499 24.9143C38.7557 24.9143 39.9234 24.5482 40.913 23.9247V24.8995H43.8818V12.1437H40.9081ZM40.918 18.5266C40.918 20.4216 39.3841 21.9555 37.4891 21.9555C35.594 21.9555 34.0602 20.4216 34.0602 18.5266C34.0602 16.6315 35.594 15.0977 37.4891 15.0977C39.3841 15.0977 40.918 16.6315 40.918 18.5266Z" fill="white"/>
<path d="M21.6013 3.76198C21.6458 3.83125 21.7448 4.01927 21.7844 4.0836C18.7414 3.98464 15.1641 5.0138 11.8588 7.18594C8.28645 9.53125 5.89166 12.7721 4.88229 15.8448C4.62499 15.5529 4.48645 15.3995 4.31328 15.1125C3.45234 13.6529 3.36822 11.7083 4.06093 9.82318C5.1 8.00235 7.00989 5.84506 9.99348 4.03412C11.6609 3.02474 13.368 2.11433 15.075 1.67396C17.8755 1.30781 20.3891 1.88177 21.6013 3.76198Z" fill="white"/>
<path d="M28.7757 3.80156C26.3561 0.085675 21.1757 -0.90391 15.3767 1.10989C18.3603 0.694267 20.9877 1.48593 22.2791 3.475C24.4265 6.77031 21.6853 12.2575 16.6681 15.5578C11.6509 18.8581 5.84212 18.863 3.69968 15.5628C2.70514 14.0339 2.67546 12.0596 3.42754 10.0607C0.839779 13.9943 0.206445 18.2445 2.19056 21.2924C5.32754 26.1167 13.828 26.1167 21.1658 21.2875C28.5085 16.4534 31.9176 8.62578 28.7757 3.80156Z" fill="white"/>
</g>
<defs>
<clipPath id="clip0">
<rect width="89" height="25" fill="white" transform="translate(0.5)"/>
</clipPath>
</defs>
</svg>
