<svg viewBox="0 0 87 21" xmlns="http://www.w3.org/2000/svg"><path d="m21.1 15.9.6-3.1c.8-3.8 1.6-7.7 2.3-11.5.2-.8.6-1.3 1.4-1.3 1 0 1.5.3 1.7 1.2.3 1.2.5 2.4.7 3.7.5 2.8 1 5.7 1.5 8.6.2 1-.3 1.6-1.2 1.5-.5 0-.9-.3-1-.9l-1.5-9.3c0-.3-.1-.6-.3-.9-.1.7-.3 1.5-.5 2.2l-2.7 13.8c-.1.7-.6 1.1-1.1 1.1-.6 0-1-.3-1.2-1.1-1-3.7-2-7.3-3-11 0-.2-.1-.4-.2-.5-.2.9-.4 1.7-.5 2.6-.4 1.9-.7 3.8-1.1 5.8-.1.8-.6 1-1.4.9-.6-.1-.9-.6-.8-1.2.2-1.2.5-2.4.8-3.7.5-2.1.9-4.2 1.4-6.3.3-1.2 1-1.7 2.1-1.5.6.1.9.5 1 1l1.8 6.3c.3 1.2.7 2.4 1 3.6zm-15.7-10.4c.7.2 1.4.3 2.1.5.4.1.7.4.9.7.1.2.1.3.1.5s-.1.4-.1.5c-.2.3-.6.4-.9.4-.2.1-.5 0-.7-.1-1.6-.9-3.7-.4-4.4 2-.4 1.5-.3 2.9.4 4.2.8 1.3 2.2 1.8 3.5 1.3.3-.1.5-.2.8-.4.5-.1.9-.1 1.2.3s.2.9-.1 1.3c-.6.6-1.3.8-2.1.9-4.1.4-6-2.5-6.1-5.6 0-1 .1-2 .4-3 .8-2.2 2.6-3.4 5-3.5zm47 4.1h5.1c-.1-2-1.2-3.2-2.7-3.1-1.4.1-2.5 1.5-2.4 3.1zm0 1.2c.1 1.3.5 2.3 1.6 2.8s2.1.3 3.1-.4c.2-.2.4-.4.6-.5.3-.1.6 0 .9-.1 0 .3.1.8 0 .9-.4.4-.9.9-1.5 1.1-3.1 1.2-6-.3-6.2-4 0-1 .1-2 .5-2.9.8-1.7 2-2.4 3.9-2.3 1.5.1 2.8 1.1 3.3 2.7.2.6.2 1.1.3 1.7 0 .7-.2 1-1 1h-4.9zm23.9-1.2h5c0-1.8-1.1-3.2-2.6-3.1-1.3.1-2.5 1.5-2.4 3.1zm0 1.2c.1 1.3.5 2.3 1.6 2.8s2.1.3 3.1-.4c.2-.2.4-.4.6-.5.3-.1.6-.1.9-.1 0 .3.1.7 0 .9-.4.4-.9.8-1.4 1.1-3 1.2-6.1-.2-6.3-4-.1-1 .1-2 .5-2.9.8-1.7 2-2.4 3.9-2.3 1.5.1 2.8 1.1 3.3 2.7.2.6.2 1.1.3 1.7 0 .7-.2 1-.9 1h-4.9zm-37-4.3c1.4-1.3 3.2-1.4 4.5-.3.9.6 1.2 1.6 1.2 2.6v5.5c-.1.4-.3.6-.7.6s-.6-.3-.6-.7v-2.3-3.2c0-1.3-.8-2.1-2.2-2.1-1.3 0-2.2.9-2.2 2.1v5.6c-.2.4-.3.7-.8.7s-.6-.3-.6-.7v-7.9c0-.2 0-.4.1-.6s.4-.4.6-.4.5.2.6.4c0 .2 0 .4.1.7zm28 0c.8-1 1.9-1.2 3.1-1 1.6.3 2.6 1.5 2.7 3.3v5.6c-.1.4-.3.6-.8.6-.4 0-.6-.3-.6-.7v-5.4c0-1.4-.8-2.2-2.2-2.2-1.3 0-2.2.9-2.3 2.2v5.4c-.1.4-.2.7-.7.7s-.6-.3-.7-.8v-7.8c0-.2 0-.5.1-.7.1-.1.2-.2.3-.2.1-.1.2-.1.3-.1.2 0 .4.2.5.4.3.2.3.4.3.7zm-55.5 5.2v4.7c0 .9-.4 1.3-1.2 1.3-.7 0-1.1-.4-1.1-1.2v-9.7c0-.8.4-1.2 1.1-1.2.6 0 1 .3 1 .9.1.6.1 1.1.1 1.7.1 1.1.1 2.3.1 3.5zm35.7-5c-.5-.2-1.3.2-1.3-.7s.8-.4 1.3-.6v-1.9c0-.2 0-.5.1-.6s.4-.3.6-.3.5.3.5.5c.1.5.1 1.1.1 1.6v.7c.5.2 1.3-.2 1.3.6s-.8.5-1.3.6v7.1c0 .2 0 .5-.1.7s-.4.4-.6.4-.5-.2-.6-.4c-.1-.1 0-.4 0-.6v-6.5zm38.5-1.3c.5.2 1.3-.2 1.3.6s-.7.5-1.3.7v7.1c0 .8-.2 1.1-.7 1.1s-.7-.2-.7-1.1v-7.1c-.5-.2-1.4.2-1.3-.7 0-.9.9-.3 1.3-.6v-1.9c0-.5.1-.8.6-.9.4 0 .7.3.7.9.1.6.1 1.3.1 1.9zm-24.2 1.4c.3-.3.5-.7.8-.8.4-.2.8-.4 1.2-.5s.8.1.9.6-.3.5-.7.7c-.2.1-.3.1-.5.1-1.1.4-1.7 1.2-1.8 2.4v4.9c0 .4-.2.8-.7.7-.5 0-.6-.4-.6-.8v-8c0-.4.1-.7.6-.8.5 0 .7.3.7.7.1.3.1.5.1.8zm-27.5 3.4v-3.8c0-.2 0-.4.1-.5.2-.2.4-.4.6-.4s.5.2.6.4.1.5.1.7v7.8c-.1.4-.2.7-.7.6-.5 0-.6-.3-.6-.7v-1.4c-.1 0-.1-2.7-.1-2.7zm-24.9-6.7c0-.3.2-.7.4-.9s.6-.4.9-.4c.4 0 .7.2.9.4s.4.6.4 1c0 .3-.2.7-.4.9s-.6.4-.9.4c-.4 0-.7-.2-.9-.4s-.4-.6-.4-1zm25.6.5c-.2 0-.5-.1-.6-.2-.2-.2-.3-.4-.3-.6v-.3c0-.1.1-.2.2-.3s.2-.2.3-.2.2-.1.3-.1h.3c.2.1.4.2.5.5 0 .1.1.2.1.3 0 .2-.1.5-.3.6-.1.2-.3.3-.5.3z"/></svg>