<svg width="66" height="11" viewBox="0 0 66 11" fill="none" xmlns="http://www.w3.org/2000/svg">
<g clip-path="url(#clip0)">
<path d="M17.9735 0.00583498C18.4569 -0.0203457 18.9403 0.0567883 19.3915 0.232092C19.8428 0.407396 20.2514 0.67685 20.5904 1.0225C20.9293 1.36814 21.1907 1.78205 21.3571 2.23664C21.5235 2.69123 21.5912 3.17607 21.5555 3.65885L21.5395 10.1519H19.3185L19.3275 6.56183H17.1625V4.62385L19.3275 4.62885V3.29084C19.3188 2.93634 19.1721 2.59922 18.9187 2.35123C18.6652 2.10325 18.325 1.96399 17.9704 1.96308C17.6158 1.96217 17.2748 2.09967 17.0201 2.34635C16.7654 2.59303 16.617 2.9294 16.6065 3.28385L16.5925 10.1488H14.3705L14.3835 3.64884C14.3481 3.16589 14.4162 2.68096 14.5833 2.22648C14.7505 1.77199 15.0127 1.35844 15.3526 1.01353C15.6925 0.668612 16.1022 0.400292 16.5542 0.226508C17.0062 0.0527232 17.4901 -0.0225244 17.9735 0.00583498ZM5.19148 10.1188C3.91996 10.0419 2.72592 9.4819 1.85377 8.55344C0.981625 7.62498 0.497328 6.3983 0.500011 5.12446C0.502694 3.85061 0.992156 2.62596 1.86821 1.70118C2.74426 0.776397 3.94064 0.221418 5.21247 0.149847H6.86549L6.85948 2.14985L5.32048 2.14484C4.60035 2.2467 3.94112 2.60486 3.46376 3.15357C2.9864 3.70228 2.72294 4.40474 2.72172 5.13203C2.72051 5.85932 2.98161 6.56262 3.45713 7.11292C3.93266 7.66322 4.59072 8.02358 5.3105 8.12784H6.84748V10.1198L5.19148 10.1188ZM8.43147 7.13483L8.44548 0.154852L10.5535 0.160834L10.5375 6.85285C10.5375 7.76685 10.9065 8.02384 11.6185 8.02384H13.2005L13.1935 10.1339L11.1015 10.1289C9.50548 10.1249 8.42447 9.32384 8.43147 7.13084V7.13483ZM26.5825 10.1649L23.2505 10.1588V8.16486L26.5265 8.17084C26.6173 8.17027 26.7071 8.15103 26.7902 8.11432C26.8733 8.07762 26.948 8.02423 27.0096 7.95746C27.0712 7.8907 27.1184 7.81201 27.1483 7.72623C27.1782 7.64046 27.1902 7.54943 27.1835 7.45884C27.1835 6.40584 23.2275 5.34285 23.2335 2.83585C23.2098 2.49609 23.2566 2.15509 23.3709 1.83427C23.4852 1.51344 23.6646 1.21969 23.8979 0.971503C24.1312 0.723318 24.4132 0.526033 24.7263 0.392035C25.0395 0.258037 25.3769 0.190228 25.7175 0.192847L29.0495 0.199835V2.05186L26.1985 2.04685C26.0982 2.03867 25.9973 2.05255 25.903 2.08753C25.8086 2.12251 25.7231 2.17772 25.6524 2.2493C25.5816 2.32089 25.5274 2.4071 25.4936 2.50187C25.4598 2.59663 25.4471 2.69767 25.4565 2.79786C25.4565 3.69786 29.4115 5.07186 29.4075 7.15186C29.4075 8.54186 28.7765 10.1649 26.5825 10.1599V10.1649ZM34.1455 10.1819L30.8135 10.1738V8.18085L34.0905 8.18784C34.1815 8.18769 34.2716 8.16877 34.355 8.13224C34.4384 8.09571 34.5134 8.04236 34.5752 7.97553C34.6371 7.90871 34.6845 7.82982 34.7145 7.74384C34.7444 7.65787 34.7564 7.56663 34.7495 7.47584C34.7495 6.42184 30.7945 5.35984 30.7985 2.85184C30.7749 2.51199 30.8218 2.17092 30.9364 1.85007C31.0509 1.52923 31.2305 1.23554 31.464 0.987433C31.6974 0.739328 31.9797 0.542177 32.2929 0.408362C32.6062 0.274547 32.9438 0.206959 33.2845 0.209845L36.6135 0.21485V2.06684L33.7645 2.06086C33.6639 2.05315 33.5629 2.06749 33.4684 2.10288C33.3739 2.13827 33.2883 2.19383 33.2176 2.26572C33.1468 2.33762 33.0926 2.42409 33.0588 2.51911C33.0249 2.61413 33.0122 2.71539 33.0215 2.81583C33.0215 3.71583 36.9765 5.08985 36.9725 7.16785C36.9715 8.55785 36.3405 10.1809 34.1465 10.1769L34.1455 10.1819ZM38.8015 10.1908L38.8265 0.221838H40.9315L40.9095 10.1918L38.8015 10.1908ZM47.4015 10.2098C46.1313 10.1306 44.9393 9.5694 44.0689 8.64091C43.1986 7.71241 42.7155 6.48667 42.7185 5.21403C42.7214 3.94138 43.2101 2.71784 44.0847 1.79337C44.9594 0.868898 46.1539 0.313227 47.4245 0.239844H49.0745V2.23984H47.5395C46.8192 2.34085 46.1596 2.69822 45.6816 3.24637C45.2035 3.79453 44.9392 4.49668 44.9372 5.22397C44.9351 5.95127 45.1954 6.65493 45.6703 7.20579C46.1452 7.75664 46.8028 8.11775 47.5225 8.22285H49.0615V10.2168L47.4015 10.2098Z" fill="white"/>
<path d="M55.2355 10.3979C54.3885 10.3979 53.6745 10.0979 53.6755 9.16985C53.6755 8.46985 53.8675 8.22085 55.1095 6.99685L57.2315 4.89684C57.9045 4.22784 58.4165 3.66184 58.4175 3.04684C58.3856 2.75095 58.2402 2.47895 58.012 2.28799C57.7837 2.09703 57.4903 2.00199 57.1935 2.02285C57.0415 2.01019 56.8885 2.02824 56.7437 2.07595C56.5989 2.12366 56.4651 2.20006 56.3504 2.30056C56.2357 2.40106 56.1425 2.52362 56.0762 2.66094C56.0099 2.79826 55.9719 2.94753 55.9645 3.09985C55.9394 3.38401 56.0105 3.66837 56.1665 3.90722C56.3225 4.14607 56.5542 4.32557 56.8245 4.41686L55.3315 5.90084C54.8655 5.614 54.4841 5.2085 54.2263 4.72582C53.9686 4.24315 53.8437 3.70066 53.8645 3.15386C53.9151 2.30451 54.2886 1.50668 54.9085 0.923851C55.5284 0.341026 56.3477 0.0173367 57.1986 0.0191266C58.0494 0.0209166 58.8674 0.348036 59.4848 0.933464C60.1023 1.51889 60.4724 2.31828 60.5195 3.16784C60.5157 3.76074 60.3701 4.34413 60.0947 4.86919C59.8193 5.39426 59.4221 5.84573 58.9365 6.18584L56.5665 8.38586L60.8305 8.39584L60.8255 10.4109L55.2355 10.3979Z" fill="white"/>
<path d="M63.3785 10.5538L63.3955 2.29283H61.8195V0.337845L65.4975 0.344833L65.4745 10.5618L63.3785 10.5538Z" fill="white"/>
</g>
<defs>
<clipPath id="clip0">
<rect width="65" height="11" fill="white" transform="translate(0.5)"/>
</clipPath>
</defs>
</svg>
