<svg xmlns="http://www.w3.org/2000/svg" viewBox="0 0 145 35"><path fill="#beccda" d="M42.6 3.6h3.5c.9 0 1.7.2 2.4.5s1.2.8 1.6 1.5c.4.6.6 1.4.6 2.2s-.2 1.6-.6 2.2a4.63 4.63 0 0 1-1.6 1.5c-.7.4-1.5.5-2.4.5h-3.5V3.6zm3.5 7.4c.7 0 1.3-.1 1.8-.4s.9-.6 1.2-1.1.4-1 .4-1.7-.2-1.2-.5-1.6c-.3-.5-.7-.9-1.2-1.1-.5-.3-1.1-.4-1.8-.4h-2.3V11h2.4zm6.2-5.4h1.2V12h-1.2V5.6zm.6-1.2c-.2 0-.4-.1-.6-.2-.1-.1-.2-.3-.2-.5s.1-.4.2-.5c.2-.2.3-.2.6-.2s.4.1.6.2.2.3.2.5-.1.4-.2.6c-.2 0-.4.1-.6.1zm4.6 7.7c-.5 0-1-.1-1.5-.2s-.9-.3-1.1-.5l.5-.9c.3.2.6.4 1 .5s.8.2 1.2.2c1 0 1.5-.3 1.5-.9 0-.2-.1-.3-.2-.5s-.3-.2-.5-.2c-.2-.1-.5-.1-.9-.2l-1.3-.3c-.3-.1-.6-.3-.8-.5s-.3-.6-.3-1c0-.6.2-1 .7-1.4s1.1-.5 1.9-.5c.4 0 .8.1 1.3.2s.8.2 1 .4l-.5.9c-.5-.3-1.1-.5-1.8-.5-.5 0-.9.1-1.1.2s-.4.4-.4.6.1.4.2.5.3.2.5.3.5.1.9.2l1.2.3c.3.1.6.3.8.5s.3.6.3 1c0 .6-.2 1-.7 1.4-.4.2-1 .4-1.9.4zm7.6-6.5c.6 0 1.2.1 1.7.4s.9.7 1.1 1.1c.3.5.4 1.1.4 1.7s-.1 1.2-.4 1.7-.7.9-1.1 1.1-1 .4-1.7.4c-.5 0-.9-.1-1.3-.3s-.7-.4-1-.8v3.3h-1.2V5.6h1.1v1c.3-.4.6-.6 1-.8.5-.1.9-.2 1.4-.2zm-.1 5.5c.4 0 .8-.1 1.1-.3s.6-.5.8-.8.3-.7.3-1.2-.2-.8-.4-1.1-.4-.6-.8-.8c-.3-.2-.7-.3-1.1-.3s-.8.1-1.1.3-.6.4-.8.8c-.2.3-.3.7-.3 1.2s.1.8.3 1.2c.2.3.4.6.8.8.4.1.8.2 1.2.2zm7.6 1c-.6 0-1.2-.1-1.7-.4s-.9-.7-1.2-1.2-.4-1.1-.4-1.7.1-1.2.4-1.7c.3-.4.7-.8 1.2-1.1s1.1-.4 1.7-.4 1.2.1 1.7.4.9.7 1.2 1.2.4 1 .4 1.7-.1 1.2-.4 1.7-.7.9-1.2 1.2c-.5.1-1.1.3-1.7.3zm0-1c.4 0 .8-.1 1.1-.3s.6-.5.8-.8.3-.7.3-1.2-.2-.8-.3-1.1c-.2-.4-.5-.7-.8-.8-.3-.2-.7-.3-1.1-.3s-.8.1-1.1.3-.6.4-.8.8c-.2.3-.3.7-.3 1.2s.1.8.3 1.2c.2.3.4.6.8.8.3.1.7.2 1.1.2zm8.3-5.5c.8 0 1.4.2 1.9.7s.7 1.1.7 2.1V12h-1.2V8.5c0-.6-.1-1.1-.4-1.4s-.7-.5-1.3-.5-1.1.2-1.5.6-.5.9-.5 1.6V12h-1.2V5.6h1.1v1a2.36 2.36 0 0 1 .9-.8c.5-.1 1-.2 1.5-.2zm4.8 0h1.2V12h-1.2V5.6zm.5-1.2c-.2 0-.4-.1-.6-.2-.1-.1-.2-.3-.2-.5s.1-.4.2-.5c.2-.2.4-.3.6-.3s.4.1.6.2c.1.2.2.3.2.5s-.1.4-.2.6c-.2.1-.3.2-.6.2zm6.2 1.2c.6 0 1.2.1 1.6.4s.9.7 1.1 1.1c.3.5.4 1.1.4 1.7s-.1 1.2-.4 1.7-.7.9-1.1 1.1-1 .4-1.7.4c-.5 0-.9-.1-1.3-.3s-.7-.5-1-.8v1h-1V3.1h1.2v3.5c.3-.3.6-.6 1-.8a3.73 3.73 0 0 1 1.2-.2zm-.1 5.5c.4 0 .8-.1 1.1-.3s.6-.5.8-.8.3-.7.3-1.2-.2-.8-.4-1.1c-.1-.4-.4-.7-.7-.8-.3-.2-.7-.3-1.1-.3s-.8.1-1.1.3-.6.4-.8.8c-.2.3-.3.7-.3 1.2s.1.8.3 1.2c.2.3.4.6.8.8.3.1.7.2 1.1.2zm4.9-8h1.2V12h-1.2V3.1zm9.1 5.8v.3h-5.2c.1.6.3 1 .7 1.4.4.3.9.5 1.6.5.8 0 1.4-.3 1.8-.8l.6.7c-.3.3-.6.6-1.1.8-.4.2-.9.3-1.4.3-.7 0-1.3-.1-1.8-.4s-.9-.7-1.2-1.2-.4-1.1-.4-1.7.1-1.2.4-1.7.7-.9 1.1-1.2c.5-.3 1-.4 1.6-.4s1.1.1 1.6.4.9.7 1.1 1.2c.5.5.6 1.1.6 1.8h0zm-3.2-2.3c-.6 0-1 .2-1.4.5s-.6.8-.6 1.3h4.1c-.1-.5-.3-1-.7-1.3-.3-.4-.8-.5-1.4-.5zm9.8 5.5c-.5 0-1-.1-1.5-.2s-.9-.3-1.1-.5l.5-.9c.3.2.6.4 1 .5s.8.2 1.2.2c1 0 1.5-.3 1.5-.9 0-.2-.1-.3-.2-.5s-.3-.2-.5-.2c-.2-.1-.5-.1-.9-.2l-1.3-.3c-.3-.1-.6-.3-.8-.5s-.3-.6-.3-1c0-.6.2-1 .7-1.4s1.1-.5 1.9-.5c.4 0 .8.1 1.3.2s.8.2 1 .4l-.4.8c-.5-.3-1.1-.5-1.8-.5-.5 0-.9.1-1.1.2s-.4.4-.4.6.1.4.2.5.3.2.5.3.5.1.9.2l1.2.3c.3.1.6.3.8.5s.3.6.3 1c0 .6-.2 1-.7 1.4-.4.3-1.1.5-2 .5zm10.2-6.5V12H122v-1a2.36 2.36 0 0 1-.9.8c-.4.2-.8.3-1.2.3-.8 0-1.5-.2-2-.7s-.7-1.2-.7-2.1V5.6h1.2v3.5c0 .6.1 1.1.4 1.4s.7.5 1.3.5 1.1-.2 1.4-.6.5-.9.5-1.6V5.6h1.1zm3.2 1.1c.2-.4.5-.6.9-.8s.9-.3 1.4-.3v1.1h-.3c-.6 0-1.1.2-1.5.6s-.5.9-.5 1.6V12h-1.2V5.6h1.1l.1 1.1z"/><path fill="#f7f7f7" d="M50.8 25.3h1.5v4.4c-.6.5-1.2.8-1.9 1.1s-1.5.4-2.3.4c-1.1 0-2.1-.2-3.1-.7-.9-.5-1.6-1.2-2.1-2-.5-.9-.8-1.9-.8-2.9s.3-2.1.8-2.9c.5-.9 1.2-1.6 2.1-2 .9-.5 1.9-.7 3.1-.7.9 0 1.7.1 2.4.4s1.4.7 1.9 1.3l-1 1c-.9-.9-2-1.3-3.2-1.3a4.38 4.38 0 0 0-2.3.6 4.63 4.63 0 0 0-1.6 1.5c-.4.7-.6 1.4-.6 2.2s.2 1.5.6 2.2.9 1.2 1.6 1.5a4.38 4.38 0 0 0 2.3.6c1 0 1.9-.2 2.6-.7v-4zm8 5.8c-.8 0-1.6-.2-2.3-.6a4.63 4.63 0 0 1-1.6-1.5c-.4-.7-.6-1.4-.6-2.2s.2-1.6.6-2.2c.4-.7.9-1.2 1.6-1.5a4.38 4.38 0 0 1 2.3-.6 4.38 4.38 0 0 1 2.3.6 4.63 4.63 0 0 1 1.6 1.5c.4.7.6 1.4.6 2.2s-.3 1.5-.7 2.2-.9 1.2-1.6 1.5c-.6.4-1.4.6-2.2.6zm0-1.3c.5 0 1-.1 1.5-.4.4-.3.8-.6 1-1.1s.4-1 .4-1.6-.1-1.1-.4-1.6c-.2-.5-.6-.8-1-1.1-.4-.2-.9-.4-1.5-.4s-1 .1-1.5.4a2.17 2.17 0 0 0-1 1.1c-.2.4-.4 1-.4 1.6s.1 1.1.4 1.6c.3.4.6.8 1 1.1.4.2.9.4 1.5.4zm10.1 1.3c-.8 0-1.6-.2-2.3-.6A4.63 4.63 0 0 1 65 29c-.4-.7-.6-1.4-.6-2.2s.2-1.6.6-2.2c.4-.7.9-1.2 1.6-1.5a4.38 4.38 0 0 1 2.3-.6c.8 0 1.6.2 2.3.6a4.63 4.63 0 0 1 1.6 1.5c.4.7.6 1.4.6 2.2s-.2 1.6-.6 2.2c-.4.7-.9 1.2-1.6 1.5a4.38 4.38 0 0 1-2.3.6zm0-1.3c.5 0 1-.1 1.5-.4.4-.3.8-.6 1-1.1s.4-1 .4-1.6-.1-1.1-.4-1.6c-.2-.5-.6-.8-1-1.1-.4-.2-.9-.4-1.5-.4s-1 .1-1.5.4a2.17 2.17 0 0 0-1 1.1c-.2.4-.4 1-.4 1.6s.1 1.1.4 1.6c.3.4.6.8 1 1.1.5.2 1 .4 1.5.4zm14.7-7.3v7.3c0 1.5-.4 2.6-1.1 3.3s-1.8 1.1-3.3 1.1c-.8 0-1.6-.1-2.3-.3s-1.3-.5-1.8-.9l.7-1.2a5.3 5.3 0 0 0 1.5.8c.6.2 1.2.3 1.8.3 1 0 1.7-.2 2.2-.7S82 31 82 30v-.7c-.4.4-.8.8-1.3 1s-1.1.3-1.7.3c-.8 0-1.5-.2-2.2-.5-.7-.4-1.2-.8-1.5-1.5-.4-.6-.6-1.3-.6-2.1s.2-1.5.6-2.1.9-1.1 1.5-1.5c.7-.3 1.4-.5 2.2-.5.6 0 1.2.1 1.8.4.6.2 1 .6 1.4 1v-1.3h1.4zm-4.5 6.8c.6 0 1.1-.1 1.5-.4a2.41 2.41 0 0 0 1-1c.3-.4.4-.9.4-1.4 0-.8-.3-1.5-.8-2s-1.2-.8-2.1-.8-1.6.3-2.1.8-.8 1.2-.8 2c0 .5.1 1 .4 1.4a4.74 4.74 0 0 0 1 1c.5.3 1 .4 1.5.4zm7.4-10.2H88V31h-1.5V19.1zm12.1 7.7v.5h-6.9c.1.7.4 1.3 1 1.8.6.4 1.3.7 2.1.7 1 0 1.8-.3 2.4-1l.8 1c-.4.4-.9.8-1.4 1-.6.2-1.2.4-1.9.4-.9 0-1.7-.2-2.4-.5a4.1 4.1 0 0 1-1.6-1.6c-.4-.7-.6-1.4-.6-2.2s.2-1.6.5-2.2c.4-.7.9-1.2 1.5-1.5.7-.4 1.4-.6 2.2-.6s1.5.2 2.2.6c.6.4 1.1.9 1.5 1.5.5.5.6 1.3.6 2.1zm-4.2-3.1c-.7 0-1.4.2-1.9.7-.5.4-.8 1-.9 1.8H97c-.1-.7-.4-1.3-.9-1.7-.3-.5-.9-.8-1.7-.8zm15.3-3.9c1.4 0 2.6.3 3.4 1s1.2 1.6 1.2 2.9-.4 2.2-1.2 2.9-2 1-3.4 1h-2.8V31h-1.6V19.8h4.4zm-.1 6.4c1 0 1.8-.2 2.3-.6s.8-1.1.8-1.9-.3-1.4-.8-1.9c-.5-.4-1.3-.7-2.3-.7h-2.7v5l2.7.1zm7-7.1h1.5V31h-1.5V19.1zm7.6 3.3c1.2 0 2.1.3 2.7.9s.9 1.4.9 2.6V31h-1.5v-1.1c-.3.4-.6.7-1.1.9s-1 .3-1.7.3c-.9 0-1.7-.2-2.3-.7s-.8-1.1-.8-1.8.3-1.3.8-1.8 1.4-.7 2.6-.7h2.4v-.3c0-.7-.2-1.2-.6-1.5s-.9-.5-1.7-.5c-.5 0-1 .1-1.5.3s-.9.4-1.2.7l-.6-1.2c.4-.4 1-.6 1.6-.8.6-.3 1.3-.4 2-.4zm-.4 7.5c.6 0 1.1-.1 1.5-.4s.7-.6.9-1.1v-1.2h-2.4c-1.3 0-2 .4-2 1.3 0 .4.2.8.5 1 .5.3.9.4 1.5.4zm14.2-7.4l-4.1 9.3c-.4.9-.8 1.5-1.3 1.8-.5.4-1.1.5-1.7.5-.4 0-.8-.1-1.2-.2s-.7-.3-1-.6l.7-1.2c.4.4.9.6 1.5.6.4 0 .7-.1.9-.3.3-.2.5-.5.7-1l.3-.6-3.7-8.5h1.6l3 6.8 2.9-6.8 1.4.2z"/><path fill="#ea4335" d="M17.6 16.8l-13.3 14h0c.4 1.5 1.8 2.6 3.5 2.6.7 0 1.3-.2 1.8-.5h0l15-8.6-7-7.5z"/><path fill="#fbbc04" d="M31.1 14.4h0l-6.5-3.7-7.3 6.4 7.4 7.2 6.5-3.6c1.1-.6 1.9-1.8 1.9-3.1-.1-1.4-.9-2.6-2-3.2z"/><path fill="#4285f4" d="M4.3 4.3c-.1.3-.1.6-.1 1v24.6c0 .3 0 .6.1 1l13.8-13.6-13.8-13z"/><path fill="#34a853" d="M17.7 17.5l6.9-6.8-15-8.5c-.5-.3-1.2-.5-1.9-.5-1.6 0-3.1 1.1-3.5 2.6h0l13.5 13.2z"/></svg>