<svg width="56" height="24" viewBox="0 0 56 24" fill="none" xmlns="http://www.w3.org/2000/svg">
<g clip-path="url(#clip0_436_34)">
<path d="M3.42392 6.15715L0 23.2587H4.84222L8.26502 6.15715H3.42392Z" fill="white"/>
<path d="M55.2421 9.8943L56.0001 6.15715H42.5986L39.1747 23.2587H52.8939L53.6766 19.5205H44.7019L45.3128 16.3936H52.9422L53.6519 12.7777H46.0472L46.6087 9.8943H55.2421Z" fill="white"/>
<path d="M55.5833 1.05014H50.7905L47.1229 4.76373H50.5704L55.5833 1.05014Z" fill="white"/>
<path d="M4.78158 4.22519C5.19708 4.61562 5.7391 4.81084 6.40764 4.81084C6.75385 4.82078 7.09845 4.75982 7.4202 4.6317C7.74194 4.50358 8.03404 4.31102 8.2785 4.06587C8.7741 3.57372 9.0219 2.92712 9.0219 2.12606C9.0219 1.49105 8.81789 0.97795 8.40988 0.586771C8.00187 0.195591 7.46397 3.42436e-07 6.79618 3.42436e-07C6.44709 -0.00869403 6.09991 0.0541112 5.77603 0.184546C5.45216 0.314981 5.15844 0.510285 4.91297 0.758426C4.40764 1.26329 4.15497 1.91476 4.15497 2.71283C4.14584 2.99492 4.19701 3.27573 4.30506 3.53651C4.41311 3.79729 4.57556 4.03207 4.78158 4.22519Z" fill="white"/>
<path d="M41.7833 10.2309C41.5539 9.18821 40.9688 8.2577 40.128 7.59883C38.9212 6.63771 37.2094 6.15715 34.9927 6.15715H30.5559L27.0388 9.97171H34.3582C35.2214 9.97171 35.8855 10.1467 36.3504 10.4968C36.8153 10.8468 37.0477 11.3704 37.0477 12.0675C37.0477 12.9957 36.7584 13.7122 36.1797 14.2171C35.601 14.722 34.7737 14.9744 33.6979 14.9744H28.7367C27.9619 14.9747 27.2111 15.2431 26.6121 15.734C26.0131 16.2249 25.6027 16.908 25.4509 17.667L24.5761 22.0369H23.9573V20.8163H23.2499V19.5956H22.5379V18.3727H21.8237V17.1509H19.9259V18.3727H19.2128V19.5956H18.5009V20.8174H19.2128V22.0392H19.9259V23.261H29.1735L30.0539 18.7901H33.4778C35.172 18.7901 36.6596 18.4969 37.9405 17.9105C39.0277 17.4332 39.9725 16.6825 40.6828 15.7317C40.7569 15.6296 40.8299 15.5253 40.8995 15.4176C41.592 14.3428 41.9382 13.0888 41.9382 11.6557C41.9409 11.1764 41.889 10.6984 41.7833 10.2309Z" fill="white"/>
<path d="M21.0556 12.2649H23.4104V11.0432H24.3526V9.82137H25.2947V8.59959H26.238V7.37893H27.1802V6.15715H22.6827V7.37893H21.7406V8.59959H20.7973V9.82137H19.8551V11.0432H21.0556V12.2649Z" fill="white"/>
<path d="M8.49517 18.3727H9.65519V17.1509H10.8152V15.9292H11.9752V14.7074H12.7759V13.4867H12.1897V12.2649H11.5609V11.0432H10.9331V9.82137H10.3043V8.59959H9.67653V7.37893H9.04767V6.15715H7.15772V7.37893H7.78658V8.59959H8.41432V9.82137H9.04318V11.0432H9.67204V12.2649H10.2998V13.4867H10.886V14.7074H9.91123V15.9292H8.75121V17.1509H7.59118V18.3727H6.43116V19.5945H5.35536V20.8163H4.27844V22.0369H3.20264V23.2587H5.26552V22.0369H6.34245V20.8163H7.41825V19.5945H8.49517V18.3727Z" fill="white"/>
<path d="M19.2622 14.7074H20.0898V13.4867H19.4273V12.2649H19.4205H18.758V11.0432H18.0887V9.82137H17.4205V8.59959H16.7512V7.37893H16.082V6.15715H11.562V7.37893H12.2313V8.59959H12.9006V9.82137H13.5688V11.0432H14.238V12.2649H14.9073V13.4867H15.6092V14.7074H14.5615V15.9292H13.5137V17.1509H12.4671V18.3727H11.4194V19.5945H10.3717V20.8163H9.32507V22.0369H8.27734V23.2587H12.9781V22.0369H14.0258V20.8163H15.0724V19.5945H16.1201V18.3727H17.1679V17.1509H18.2145V15.9292H19.2622V14.7074Z" fill="white"/>
</g>
<defs>
<clipPath id="clip0_436_34">
<rect width="56" height="23.7288" fill="white"/>
</clipPath>
</defs>
</svg>
