<svg width="66" height="27" viewBox="0 0 66 27" fill="none" xmlns="http://www.w3.org/2000/svg">
<g clip-path="url(#clip0)">
<path d="M26.799 1.99237C25.3126 0.861082 23.4696 0.30078 21.605 0.413356C18.7345 0.422765 15.9454 1.36824 13.661 3.10634L15.791 6.34036C16.5253 5.77614 17.3422 5.32855 18.213 5.01337C19.0739 4.67289 19.9876 4.48475 20.913 4.45737C22.8917 4.43137 23.865 5.38168 23.833 7.30835V7.40836L20.177 7.45636C18.2789 7.38231 16.403 7.88771 14.799 8.90536C14.141 9.37927 13.611 10.009 13.2564 10.7382C12.9017 11.4674 12.7336 12.2732 12.767 13.0833C12.7148 13.9085 12.8512 14.7347 13.1658 15.4994C13.4805 16.264 13.9651 16.9469 14.583 17.4963C15.8728 18.6075 17.5395 19.1819 19.24 19.1013C20.1703 19.0824 21.0831 18.8445 21.9043 18.407C22.7256 17.9696 23.4322 17.3448 23.967 16.5833L23.929 18.7684L28.529 18.7083L28.729 7.17337C28.7724 4.79937 28.128 3.07135 26.796 1.98935L26.799 1.99237ZM23.72 11.8813C23.7257 12.3048 23.6356 12.7241 23.4563 13.1079C23.2771 13.4916 23.0135 13.8299 22.685 14.0973C22.0375 14.6441 21.2185 14.946 20.371 14.9503C19.6685 15.0063 18.9667 14.833 18.371 14.4563C18.1418 14.2856 17.9596 14.0596 17.8414 13.7994C17.7232 13.5392 17.6728 13.2533 17.695 12.9683C17.7163 11.713 18.7067 11.0727 20.666 11.0473L23.735 11.0063L23.72 11.8813Z" fill="white"/>
<path d="M51.6371 0.01532C50.423 0.0485704 49.2351 0.375574 48.175 0.968323C47.04 1.57357 46.0848 2.4677 45.406 3.56033C44.9569 2.59423 44.2685 1.75883 43.406 1.13333C42.5435 0.482137 41.4865 0.141082 40.406 0.165344C39.4974 0.199914 38.6075 0.43388 37.7995 0.850708C36.9914 1.26754 36.2849 1.85701 35.73 2.57733L35.766 0.526337L30.866 0.591339L30.55 18.6833L35.4501 18.6183L35.62 8.86533C35.5608 7.6804 35.9745 6.52043 36.7701 5.64032C37.0957 5.2933 37.4874 5.01494 37.9223 4.82156C38.3571 4.62819 38.8262 4.52374 39.302 4.51434C39.6992 4.47415 40.0997 4.54437 40.4595 4.71729C40.8193 4.8902 41.1243 5.15909 41.341 5.49432C41.8198 6.47229 42.0211 7.56289 41.923 8.64734L41.75 18.5343L46.68 18.4693L46.85 8.71634C46.79 7.53433 47.197 6.37608 47.9831 5.49133C48.3125 5.14001 48.7097 4.85909 49.1507 4.66556C49.5918 4.47203 50.0674 4.3699 50.549 4.36533C52.5278 4.33866 53.4944 5.71533 53.4491 8.49533L53.2761 18.3803L58.204 18.3153L58.396 7.32132C58.4854 6.33436 58.3718 5.33957 58.0622 4.39816C57.7527 3.45675 57.2537 2.58865 56.5961 1.84732C55.9422 1.21335 55.1632 0.722727 54.309 0.406769C53.4548 0.0908109 52.5441 -0.0435241 51.635 0.0123292" fill="white"/>
<path d="M64.703 13.4434C64.4437 13.1687 64.1287 12.9524 63.7791 12.8091C63.4296 12.6658 63.0535 12.5988 62.676 12.6124C62.2914 12.6125 61.9108 12.6909 61.5575 12.8429C61.2042 12.9949 60.8856 13.2172 60.621 13.4963C60.0647 14.0588 59.7531 14.8182 59.754 15.6093C59.737 15.9942 59.7992 16.3785 59.9368 16.7384C60.0744 17.0983 60.2845 17.426 60.554 17.7014C60.813 17.9756 61.1275 18.1916 61.4765 18.3349C61.8255 18.4782 62.201 18.5455 62.578 18.5323C62.9628 18.5324 63.3436 18.4538 63.6969 18.3014C64.0503 18.1491 64.3689 17.9262 64.633 17.6464C64.9098 17.3686 65.129 17.039 65.2783 16.6764C65.4276 16.3139 65.5039 15.9254 65.503 15.5334C65.5193 15.149 65.4568 14.7653 65.3192 14.4061C65.1816 14.0468 64.9719 13.7195 64.703 13.4444" fill="white"/>
<path d="M3.02704 3.48734H6.78601L6.52301 19.3393C6.55261 19.8984 6.39303 20.4511 6.07001 20.9083C5.94171 21.074 5.77732 21.2083 5.58929 21.3008C5.40127 21.3934 5.19461 21.4418 4.98505 21.4424C4.5593 21.4333 4.14155 21.3248 3.76514 21.1257C3.38873 20.9266 3.06404 20.6422 2.81702 20.2953L0.5 24.0563C1.11787 24.704 1.85846 25.2223 2.67859 25.5809C3.49872 25.9395 4.38203 26.1314 5.27704 26.1453C6.07619 26.1489 6.86812 25.9943 7.6073 25.6906C8.34648 25.3868 9.01831 24.9398 9.58405 24.3753C10.1888 23.7548 10.6623 23.0189 10.9763 22.2114C11.2904 21.4039 11.4385 20.5414 11.412 19.6754L11.692 0.0143433H3.02704V3.48734Z" fill="white"/>
<path d="M49.263 24.5913C49.2295 24.5543 49.1884 24.525 49.1425 24.5055C49.0966 24.486 49.0469 24.4767 48.997 24.4783H46.819C46.779 24.4808 46.7389 24.4749 46.7014 24.461C46.6638 24.447 46.6297 24.4253 46.601 24.3973C46.5733 24.3695 46.5517 24.3362 46.5377 24.2995C46.5237 24.2628 46.5177 24.2235 46.52 24.1843V22.6923H48.992C49.0402 22.6954 49.0884 22.6881 49.1335 22.6708C49.1785 22.6536 49.2193 22.6268 49.253 22.5923C49.3253 22.5164 49.3657 22.4156 49.3657 22.3108C49.3657 22.206 49.3253 22.1052 49.253 22.0293C49.2198 21.9909 49.1786 21.9601 49.1324 21.939C49.0861 21.918 49.0358 21.9072 48.985 21.9073H46.525V21.3683C46.5266 21.2657 46.4879 21.1666 46.417 21.0923C46.3842 21.0548 46.3435 21.0249 46.2979 21.0047C46.2524 20.9845 46.2029 20.9745 46.1531 20.9753C46.1024 20.9747 46.0521 20.9851 46.0058 21.0059C45.9596 21.0266 45.9184 21.0571 45.885 21.0953C45.8108 21.1716 45.7695 21.2739 45.77 21.3803V24.5143C45.77 25.0143 46 25.2613 46.47 25.2613H49.014C49.0627 25.2619 49.111 25.2521 49.1557 25.2326C49.2003 25.2132 49.2403 25.1844 49.273 25.1483C49.3451 25.0737 49.3854 24.974 49.3854 24.8703C49.3854 24.7666 49.3451 24.6669 49.273 24.5923" fill="white"/>
<path d="M51.34 21.9153C51.2926 21.9115 51.2448 21.9176 51.1999 21.9333C51.155 21.949 51.1138 21.9738 51.079 22.0063C51.0428 22.0433 51.0145 22.0871 50.9956 22.1352C50.9767 22.1833 50.9677 22.2347 50.969 22.2863C50.968 22.3389 50.9774 22.3911 50.9966 22.44C51.0159 22.4889 51.0445 22.5335 51.081 22.5713C51.1145 22.6094 51.1557 22.6397 51.202 22.6604C51.2482 22.6812 51.2983 22.6917 51.349 22.6913H52.77C52.8087 22.6897 52.8472 22.6964 52.8831 22.7109C52.9189 22.7254 52.9513 22.7474 52.978 22.7753C53.0046 22.8048 53.0251 22.8392 53.0383 22.8766C53.0516 22.9141 53.0572 22.9537 53.055 22.9933V24.1863C53.0567 24.2256 53.0504 24.2648 53.0363 24.3014C53.0221 24.3381 53.0006 24.3714 52.973 24.3993C52.944 24.4261 52.9099 24.4468 52.8729 24.4604C52.8358 24.4739 52.7965 24.48 52.757 24.4784H50.957C50.9165 24.4805 50.8759 24.4746 50.8377 24.461C50.7994 24.4475 50.7642 24.4265 50.734 24.3993C50.7064 24.3714 50.6849 24.3381 50.6708 24.3014C50.6567 24.2648 50.6502 24.2256 50.652 24.1863V21.3693C50.6527 21.2669 50.614 21.1681 50.544 21.0933C50.5115 21.0555 50.4711 21.0252 50.4257 21.0045C50.3803 20.9838 50.3309 20.9731 50.281 20.9733C50.2303 20.9737 50.1802 20.9848 50.134 21.0058C50.0879 21.0268 50.0466 21.0573 50.013 21.0954C49.9388 21.1716 49.8975 21.2739 49.898 21.3803V24.5063C49.898 25.0063 50.142 25.2613 50.617 25.2613H53.094C53.568 25.2613 53.81 25.0093 53.81 24.5113V22.6474C53.81 22.1584 53.58 21.9193 53.11 21.9123L51.34 21.9153Z" fill="white"/>
<path d="M58.096 22.6023C58.1667 22.5252 58.2059 22.4244 58.2059 22.3198C58.2059 22.2152 58.1667 22.1144 58.096 22.0373C58.0629 21.999 58.0221 21.9681 57.9763 21.9465C57.9304 21.925 57.8806 21.9134 57.83 21.9123H55.056C54.9592 21.9029 54.8616 21.9157 54.7706 21.9499C54.6796 21.984 54.5976 22.0386 54.531 22.1094C54.4644 22.1802 54.4148 22.2653 54.3862 22.3582C54.3576 22.4511 54.3507 22.5493 54.366 22.6453C54.366 22.6553 54.352 23.6803 54.352 23.8313V24.8913C54.3506 24.9949 54.3901 25.0948 54.462 25.1693C54.4948 25.2062 54.535 25.2356 54.58 25.2558C54.6249 25.276 54.6737 25.2864 54.723 25.2863C54.773 25.2866 54.8226 25.2764 54.8685 25.2562C54.9143 25.236 54.9554 25.2064 54.989 25.1693C55.0621 25.0952 55.1033 24.9954 55.104 24.8913V24.1913V23.4323V22.8913C55.104 22.7623 55.164 22.6913 55.277 22.6913H57.835C57.8824 22.6957 57.9304 22.6899 57.9754 22.6742C58.0204 22.6585 58.0616 22.6333 58.096 22.6003" fill="white"/>
<path d="M45.1728 22.0283C45.1386 21.9918 45.0971 21.9628 45.0509 21.9434C45.0047 21.9239 44.955 21.9144 44.9049 21.9153H42.8639C42.8366 21.9169 42.8092 21.9169 42.7819 21.9153C42.7581 21.9159 42.7347 21.9098 42.7144 21.8976C42.694 21.8853 42.6775 21.8676 42.6669 21.8463C42.6259 21.7988 42.5746 21.7614 42.5168 21.7369C42.4591 21.7125 42.3965 21.7017 42.3339 21.7053C42.2809 21.7046 42.2283 21.7152 42.1797 21.7362C42.131 21.7572 42.0874 21.7883 42.0516 21.8274C42.0158 21.8665 41.9887 21.9127 41.972 21.963C41.9554 22.0133 41.9495 22.0666 41.9549 22.1193V22.5893V22.6543V24.8693C41.9546 24.9213 41.9646 24.9728 41.9843 25.0208C42.0041 25.0689 42.0332 25.1126 42.0699 25.1493C42.1035 25.1871 42.1448 25.2174 42.191 25.2381C42.2372 25.2588 42.2873 25.2694 42.3379 25.2693C42.3874 25.2699 42.4364 25.26 42.4817 25.2401C42.5271 25.2203 42.5677 25.191 42.6009 25.1543C42.6719 25.0785 42.7106 24.9781 42.7089 24.8743V22.9983C42.7067 22.9573 42.7128 22.9163 42.7267 22.8777C42.7407 22.839 42.7621 22.8036 42.7899 22.7733C42.8187 22.7462 42.8527 22.7251 42.8898 22.7112C42.9268 22.6973 42.9663 22.6909 43.0059 22.6923H44.9179C44.9659 22.6944 45.0138 22.6866 45.0587 22.6694C45.1036 22.6522 45.1445 22.6259 45.1789 22.5923C45.2506 22.5169 45.29 22.4164 45.2889 22.3123C45.2897 22.2597 45.2801 22.2075 45.2607 22.1586C45.2414 22.1097 45.2126 22.0651 45.1759 22.0273" fill="white"/>
<path d="M57.291 23.7883C57.2922 23.732 57.2813 23.6761 57.2591 23.6243C57.2368 23.5726 57.2037 23.5262 57.162 23.4883C57.1224 23.4497 57.0754 23.4195 57.0239 23.3994C56.9724 23.3793 56.9173 23.3697 56.862 23.3713H56.141C56.0857 23.3698 56.0307 23.3794 55.9792 23.3994C55.9276 23.4195 55.8806 23.4498 55.841 23.4883C55.7996 23.5264 55.7667 23.5728 55.7445 23.6245C55.7222 23.6762 55.7112 23.7321 55.712 23.7883C55.7112 23.8446 55.7222 23.9004 55.7445 23.9521C55.7667 24.0038 55.7996 24.0502 55.841 24.0883C55.8806 24.1269 55.9276 24.1571 55.9792 24.1772C56.0307 24.1973 56.0857 24.2068 56.141 24.2053H56.862C56.9173 24.2069 56.9724 24.1974 57.0239 24.1773C57.0754 24.1572 57.1224 24.1269 57.162 24.0883C57.2037 24.0504 57.2368 24.0041 57.2591 23.9523C57.2813 23.9006 57.2922 23.8447 57.291 23.7883Z" fill="white"/>
</g>
<defs>
<clipPath id="clip0">
<rect width="65" height="27" fill="white" transform="translate(0.5)"/>
</clipPath>
</defs>
</svg>
