<svg width="66" height="25" viewBox="0 0 66 25" fill="none" xmlns="http://www.w3.org/2000/svg">
<g clip-path="url(#clip0)">
<path d="M21.619 4.26501L22.594 8.39001L25.787 6.49701L23.517 24.267L28.546 23.436L31.333 0.0360107L28.096 0L21.619 4.26501Z" fill="white"/>
<path d="M13.106 9.169C11.7345 9.13634 10.3734 9.41356 9.12398 9.98L8.74898 10.152L9.36498 11.569L9.65499 11.455C9.85499 11.383 9.88397 11.374 10.097 11.3C10.225 11.258 10.333 11.226 10.497 11.18C10.661 11.134 10.897 11.08 11.141 11.031C11.4341 10.9712 11.7302 10.9271 12.028 10.899C12.4528 10.8545 12.8799 10.8351 13.307 10.841C13.6912 10.8425 14.0737 10.8933 14.445 10.992C14.8632 11.0807 15.2392 11.3083 15.5115 11.6379C15.7839 11.9675 15.9367 12.3795 15.945 12.807L12.782 12.77C11.5521 12.7049 10.3302 13.0026 9.268 13.626C8.83621 13.8656 8.47491 14.2144 8.22027 14.6376C7.96562 15.0607 7.82656 15.5433 7.81698 16.037C7.80769 16.5267 7.91213 17.0118 8.12209 17.4543C8.33205 17.8968 8.64179 18.2845 9.02697 18.587C9.98586 19.3165 11.1704 19.6863 12.374 19.632C12.966 19.6405 13.5562 19.5631 14.126 19.402C14.3641 19.3328 14.5979 19.2493 14.826 19.152C15.0421 19.0612 15.2505 18.9528 15.449 18.828C15.616 18.721 15.774 18.613 15.92 18.508V19.602L17.872 19.623L17.941 13.692C17.977 10.853 16.306 9.206 13.106 9.169ZM15.994 16.539C15.6015 16.995 15.1126 17.3581 14.5627 17.6019C14.0127 17.8458 13.4154 17.9643 12.814 17.949C10.74 17.926 9.74799 17.404 9.75899 16.319C9.76999 15.234 10.234 14.239 16.016 14.629L15.994 16.539Z" fill="white"/>
<path d="M65.502 15.154C65.5421 13.8889 65.1361 12.6499 64.355 11.654C63.8014 10.9633 63.0821 10.424 62.264 10.0862C61.4459 9.74838 60.5555 9.62311 59.676 9.72205C58.7964 9.82098 57.9562 10.1409 57.2335 10.652C56.5109 11.1631 55.9293 11.8488 55.5431 12.6452C55.1568 13.4416 54.9783 14.3227 55.0243 15.2067C55.0703 16.0906 55.3392 16.9485 55.8061 17.7005C56.2729 18.4525 56.9224 19.0741 57.6942 19.5075C58.466 19.9408 59.3349 20.1719 60.22 20.179C60.9739 20.198 61.7223 20.0459 62.4091 19.7341C63.0958 19.4223 63.703 18.9591 64.185 18.379L62.502 17.396C62.2027 17.687 61.8487 17.9156 61.4604 18.0687C61.0721 18.2218 60.6573 18.2964 60.24 18.288C59.4189 18.2899 58.6274 17.9817 58.024 17.425C57.5537 17.0098 57.2172 16.4645 57.057 15.858L65.495 15.953L65.502 15.154ZM57.047 14.027C57.203 13.3645 57.5696 12.7704 58.092 12.334C58.7008 11.7907 59.4943 11.5006 60.31 11.523C61.1236 11.52 61.9072 11.8305 62.498 12.39C63.0036 12.8396 63.3537 13.4379 63.498 14.099L57.047 14.027Z" fill="white"/>
<path d="M37.772 9.43898C37.0804 9.42571 36.3931 9.54948 35.7496 9.80311C35.1062 10.0567 34.5192 10.4352 34.0227 10.9168C33.5262 11.3983 33.1299 11.9733 32.8567 12.6088C32.5835 13.2442 32.4387 13.9274 32.4308 14.619C32.4229 15.3106 32.552 15.997 32.8106 16.6385C33.0692 17.28 33.4522 17.864 33.9375 18.3568C34.4229 18.8495 35.001 19.2413 35.6385 19.5096C36.276 19.7779 36.9603 19.9174 37.652 19.92C38.4063 19.9393 39.1551 19.7874 39.8422 19.4756C40.5293 19.1638 41.1368 18.7003 41.619 18.12L39.937 17.135C39.6382 17.4265 39.2842 17.6556 38.8958 17.8087C38.5074 17.9619 38.0924 18.0361 37.675 18.027C36.8532 18.0294 36.0606 17.7224 35.455 17.167C34.9858 16.7501 34.6495 16.2045 34.488 15.598L42.929 15.693L42.936 14.898C42.9748 13.6334 42.5697 12.3951 41.791 11.398C41.3143 10.7872 40.7045 10.2932 40.008 9.95378C39.3115 9.6143 38.5468 9.43823 37.772 9.43898ZM34.479 13.772C34.6365 13.1096 35.0037 12.5158 35.526 12.079C36.134 11.5356 36.9269 11.2454 37.742 11.268C38.5566 11.263 39.3415 11.5738 39.932 12.135C40.4383 12.584 40.7886 13.1826 40.932 13.844L34.479 13.772Z" fill="white"/>
<path d="M38.258 8.31199L36.569 5.98499L33.885 5.95499L36.066 8.28699L38.258 8.31199Z" fill="white"/>
<path d="M50.674 15.738C51.3162 15.7603 51.9482 15.5725 52.474 15.203C52.8657 14.9245 53.1863 14.5575 53.4097 14.1319C53.6331 13.7064 53.753 13.2341 53.7597 12.7535C53.7664 12.2729 53.6597 11.7975 53.4483 11.3658C53.2369 10.9341 52.9268 10.5584 52.543 10.269C52.0288 9.87939 51.399 9.6731 50.754 9.68299L44.661 9.61298L44.543 19.997L46.502 20.02L46.551 15.691L48.166 15.71L51.52 20.076L53.851 20.102L50.497 15.736L50.674 15.738ZM46.574 13.948L46.604 11.379L50.785 11.427C50.9516 11.4248 51.1168 11.4577 51.2699 11.5237C51.4229 11.5897 51.5602 11.6873 51.673 11.81C51.7916 11.9318 51.8843 12.0764 51.9453 12.235C52.0063 12.3937 52.0345 12.5631 52.028 12.733C52.0302 12.9007 51.9981 13.067 51.9336 13.2218C51.8691 13.3766 51.7736 13.5165 51.653 13.633C51.5362 13.7521 51.3958 13.8456 51.2408 13.9074C51.0858 13.9692 50.9197 13.998 50.753 13.992L46.574 13.948Z" fill="white"/>
<path d="M2.599 9.09402L0.616974 9.07101L0.5 19.499L6.586 19.568L6.60699 17.615L2.50699 17.566L2.599 9.09402Z" fill="white"/>
</g>
<defs>
<clipPath id="clip0">
<rect width="65" height="25" fill="white" transform="translate(0.5)"/>
</clipPath>
</defs>
</svg>
