<svg width="66" height="12" viewBox="0 0 66 12" fill="none" xmlns="http://www.w3.org/2000/svg">
<g clip-path="url(#clip0)">
<path d="M0.5 0H3.60001V11.342H0.5V0Z" fill="white"/>
<path d="M5.24599 8.53799C5.22249 8.09463 5.31995 7.65321 5.52797 7.26098C5.72456 6.94595 6.0189 6.70396 6.36598 6.57198C6.80782 6.40559 7.27328 6.31039 7.74498 6.28997C8.29298 6.25464 8.93231 6.23665 9.66298 6.23598C10.072 6.23598 10.436 6.24198 10.763 6.25198C11.0544 6.25952 11.345 6.28558 11.633 6.32998C11.8631 6.36606 12.0871 6.43335 12.299 6.52999C12.4844 6.61856 12.6535 6.73791 12.799 6.88299V6.18298C12.8018 6.01472 12.7837 5.84676 12.745 5.68298C12.7119 5.55348 12.6375 5.43832 12.533 5.35497C12.4057 5.26144 12.258 5.19941 12.102 5.17397C11.8666 5.13333 11.6278 5.11527 11.389 5.11999H9.61796C9.31383 5.10137 9.00886 5.13832 8.71797 5.229C8.55497 5.302 8.46997 5.47999 8.45897 5.76299H5.54298C5.52588 5.31824 5.59374 4.8743 5.74296 4.45498C5.86796 4.13818 6.09351 3.87116 6.38496 3.69497C6.72978 3.49971 7.11095 3.3772 7.50496 3.33498C8.04787 3.26667 8.59482 3.23527 9.14198 3.24099H12.634C13.4848 3.17832 14.3284 3.43504 15 3.96099C15.28 4.24004 15.4963 4.57622 15.6344 4.94659C15.7725 5.31696 15.829 5.71278 15.8 6.10699V11.355H12.95V10.445C12.776 10.6319 12.5899 10.8073 12.393 10.97C12.2358 11.0978 12.0619 11.2034 11.876 11.284C11.6711 11.3672 11.4552 11.4198 11.235 11.44C10.9249 11.4694 10.6135 11.4828 10.302 11.48H8.25297C7.83636 11.4828 7.42015 11.4537 7.00798 11.393C6.67189 11.3482 6.34893 11.2334 6.05998 11.056C5.7972 10.8848 5.58897 10.6419 5.45998 10.356C5.30586 9.99212 5.23349 9.59886 5.24797 9.20397L5.24599 8.53799ZM10.603 9.587C11.0107 9.59235 11.4184 9.5743 11.824 9.53298C12.0584 9.51295 12.2884 9.45731 12.506 9.36797C12.6324 9.3179 12.7355 9.22232 12.795 9.1C12.8387 8.98509 12.8601 8.8629 12.858 8.73998C12.8606 8.61272 12.8417 8.48594 12.802 8.36498C12.7575 8.25244 12.67 8.16216 12.559 8.11398C12.3851 8.03774 12.2001 7.99014 12.011 7.97298C11.6836 7.93738 11.3543 7.92169 11.025 7.92599H9.69298C9.43326 7.92239 9.17369 7.94044 8.91698 7.97997C8.74961 8.00285 8.58923 8.06189 8.44697 8.15298C8.34347 8.22396 8.2645 8.32528 8.22096 8.44299C8.1753 8.5792 8.15399 8.72238 8.15797 8.86599C8.15142 8.98288 8.18103 9.09894 8.24275 9.19842C8.30448 9.29789 8.39533 9.37596 8.50297 9.42199C8.9004 9.558 9.3208 9.61408 9.73997 9.587H10.603Z" fill="white"/>
<path d="M48.4041 3.82199C48.0855 3.59255 47.7224 3.43244 47.3381 3.35199C46.9546 3.26926 46.5634 3.22736 46.1711 3.22699H41.6711C41.2788 3.22743 40.8876 3.26933 40.5041 3.35199C40.1205 3.43245 39.7579 3.59257 39.44 3.82199C39.1043 4.0724 38.8374 4.40369 38.6641 4.785C38.4464 5.29152 38.3439 5.84005 38.364 6.39099V8.302C38.3444 8.85096 38.447 9.39741 38.6641 9.90198C38.8371 10.2838 39.104 10.6155 39.44 10.866C39.7576 11.0957 40.1203 11.2555 40.5041 11.335C40.8876 11.418 41.2788 11.4602 41.6711 11.461H46.1711C46.5635 11.4603 46.9546 11.418 47.3381 11.335C47.7225 11.2556 48.0858 11.0957 48.4041 10.866C48.7395 10.615 49.006 10.2834 49.1791 9.90198C49.3963 9.39742 49.4988 8.85097 49.4791 8.302V6.392C49.4993 5.84106 49.3968 5.2925 49.1791 4.78598C49.0058 4.40465 48.7393 4.07312 48.4041 3.82199ZM46.4701 7.89499C46.4768 8.11725 46.4474 8.33913 46.3831 8.552C46.3226 8.72403 46.1993 8.86687 46.038 8.952C45.8166 9.06499 45.575 9.13295 45.3271 9.15198C44.9365 9.19267 44.5438 9.21072 44.1511 9.20599H43.4311C42.8981 9.24055 42.3655 9.13253 41.8881 8.89301C41.7067 8.76009 41.564 8.58129 41.4745 8.37497C41.3851 8.16865 41.3521 7.94225 41.3791 7.71899V6.96698C41.352 6.74372 41.3849 6.51728 41.4744 6.31094C41.5638 6.10461 41.7066 5.92584 41.8881 5.793C42.3655 5.55348 42.8981 5.44542 43.4311 5.47998H44.1511C44.5438 5.47524 44.9365 5.49328 45.3271 5.534C45.5749 5.55379 45.8163 5.62171 46.038 5.73398C46.2009 5.82142 46.3244 5.96772 46.3831 6.14301C46.4463 6.35371 46.4757 6.5731 46.4701 6.793V7.89499Z" fill="white"/>
<path d="M35.082 3.228C34.7511 3.22711 34.4207 3.25319 34.094 3.30601C33.7959 3.35386 33.5061 3.4434 33.233 3.572C32.9765 3.69468 32.7475 3.86819 32.56 4.08201C32.3639 4.30994 32.2245 4.58095 32.153 4.87299H32.121V3.353H29.302V11.341H32.309V6.922C32.2915 6.72212 32.3273 6.52113 32.4128 6.33964C32.4984 6.15814 32.6306 6.00262 32.796 5.88898C33.1794 5.66362 33.6198 5.55423 34.064 5.57401C34.3127 5.56718 34.561 5.59888 34.8 5.66801C34.9696 5.71911 35.1213 5.81681 35.238 5.94999C35.3475 6.08606 35.4205 6.24783 35.45 6.41999C35.4889 6.63711 35.507 6.85746 35.504 7.07801H38.104C38.116 6.93101 38.123 6.80301 38.129 6.69401C38.135 6.58501 38.136 6.47699 38.136 6.37199C38.2126 5.51165 37.9607 4.65422 37.431 3.97199C37.1101 3.69555 36.7365 3.48708 36.3328 3.3592C35.929 3.23132 35.5035 3.1867 35.082 3.228Z" fill="white"/>
<path d="M24.98 8.34998C24.9964 8.48593 24.9824 8.62384 24.939 8.75372C24.8956 8.88361 24.8238 9.00223 24.729 9.10098C24.429 9.26817 24.0844 9.33806 23.743 9.30099C23.4522 9.31389 23.1618 9.26832 22.889 9.16699C22.7832 9.11347 22.6968 9.02818 22.642 8.9231C22.5871 8.81801 22.5664 8.69839 22.583 8.58099V5.51099H27.251V3.349H22.583V1.46899H19.576V3.349H18.076V5.51099H19.576V8.67499C19.5591 9.14752 19.6556 9.61724 19.857 10.045C20.0311 10.3891 20.2904 10.6831 20.6101 10.899C20.944 11.1166 21.3179 11.2655 21.71 11.337C22.1431 11.4223 22.5836 11.4645 23.025 11.463H24.215C24.7364 11.474 25.2566 11.4066 25.758 11.263C26.1464 11.1519 26.5069 10.96 26.816 10.7C27.0805 10.4666 27.2861 10.174 27.416 9.84598C27.5489 9.5091 27.6167 9.15013 27.616 8.78799V7.81699H24.9851L24.98 8.34998Z" fill="white"/>
<path d="M53.346 3.353H50.338V11.341H53.346V3.353Z" fill="white"/>
<path d="M53.346 0.00100708H50.338V2.35101H53.346V0.00100708Z" fill="white"/>
<path d="M65.401 7.79398C65.3307 7.47061 65.1611 7.17729 64.916 6.95499C64.5806 6.67439 64.1828 6.47826 63.756 6.383C63.0604 6.22331 62.3474 6.15275 61.634 6.17301H59.55C59.15 6.17301 58.837 6.164 58.604 6.15C58.4214 6.14215 58.2401 6.11567 58.063 6.07099C57.965 6.05137 57.8766 5.99923 57.812 5.92301C57.77 5.8578 57.7484 5.78152 57.75 5.70398C57.7435 5.59129 57.7707 5.47923 57.828 5.38199C57.9058 5.28826 58.0141 5.22491 58.134 5.20301C58.3392 5.15404 58.5491 5.12755 58.76 5.124C59.0267 5.11333 59.3793 5.10831 59.818 5.10898C60.2566 5.10965 60.6193 5.11766 60.906 5.133C61.1248 5.14072 61.3426 5.16682 61.557 5.211C61.683 5.23202 61.8001 5.28934 61.894 5.37598C61.9668 5.45835 62.0228 5.55415 62.059 5.65799H65.066C65.0672 5.25841 65.0037 4.86127 64.878 4.482C64.754 4.15892 64.514 3.89363 64.205 3.73798C63.7625 3.52427 63.2853 3.39184 62.796 3.34699C62.0055 3.25825 61.2103 3.21886 60.415 3.22901H58.315C57.8309 3.22715 57.3471 3.25316 56.866 3.30698C56.4638 3.34731 56.0714 3.45624 55.706 3.629C55.3875 3.78081 55.1184 4.01968 54.93 4.318C54.7256 4.68371 54.6282 5.09957 54.649 5.51801C54.6369 5.98073 54.6949 6.44261 54.821 6.888C54.9248 7.23183 55.1348 7.53392 55.421 7.75098C55.7549 7.98558 56.138 8.14087 56.541 8.20499C57.1177 8.30212 57.7022 8.34632 58.287 8.33701H61.107C61.4633 8.30759 61.8217 8.35813 62.156 8.48499C62.2404 8.53888 62.3084 8.61497 62.3525 8.70493C62.3966 8.79488 62.4151 8.89524 62.406 8.995C62.4124 9.10074 62.3851 9.20577 62.328 9.29499C62.2544 9.3824 62.1561 9.4455 62.046 9.47599C61.868 9.53037 61.6839 9.56195 61.498 9.56998C61.269 9.58498 60.976 9.594 60.621 9.594H59.555C59.2175 9.59892 58.88 9.58086 58.545 9.53998C58.3531 9.51837 58.1657 9.4678 57.989 9.38999C57.8828 9.34699 57.796 9.26661 57.745 9.164C57.7072 9.06651 57.6888 8.96255 57.691 8.858H54.591C54.5782 9.27931 54.6461 9.69918 54.791 10.095C54.9225 10.423 55.1492 10.704 55.442 10.902C55.7986 11.128 56.1985 11.2772 56.616 11.34C57.1982 11.4364 57.7878 11.4812 58.378 11.474H61.229C61.9358 11.4824 62.6425 11.443 63.344 11.356C63.8046 11.3085 64.2499 11.1644 64.651 10.933C64.9584 10.7445 65.193 10.4576 65.317 10.119C65.4554 9.69727 65.519 9.25463 65.505 8.81101C65.5064 8.46928 65.4715 8.12835 65.401 7.79398Z" fill="white"/>
</g>
<defs>
<clipPath id="clip0">
<rect width="65" height="12" fill="white" transform="translate(0.5)"/>
</clipPath>
</defs>
</svg>
