<svg width="66" height="14" viewBox="0 0 66 14" fill="none" xmlns="http://www.w3.org/2000/svg">
<g clip-path="url(#clip0)">
<path d="M0.503998 0H4.123V13.66H0.5L0.503998 0Z" fill="white"/>
<path d="M6.22201 10.283C6.19368 9.74932 6.31122 9.21796 6.56201 8.746C6.79837 8.36608 7.15282 8.07416 7.57101 7.91501C8.10252 7.71453 8.66249 7.59977 9.23001 7.57501C9.89068 7.53101 10.661 7.50934 11.541 7.51001C12.033 7.51001 12.472 7.51502 12.862 7.52802C13.2131 7.53912 13.5632 7.57253 13.91 7.62802C14.1863 7.66927 14.4556 7.74869 14.71 7.86401C14.9334 7.96947 15.1364 8.11331 15.31 8.289V7.43903C15.3138 7.23703 15.2916 7.03537 15.244 6.83902C15.2049 6.68147 15.1153 6.54101 14.989 6.43903C14.8353 6.32731 14.6576 6.25332 14.47 6.22302C14.1871 6.17377 13.9001 6.15166 13.613 6.15701H11.481C11.1141 6.13439 10.7461 6.17879 10.395 6.28803C10.2 6.37703 10.095 6.58802 10.083 6.92902H6.57301C6.55317 6.39342 6.6367 5.85901 6.81901 5.35501C6.9699 4.97351 7.24182 4.65206 7.59302 4.44C8.00849 4.2051 8.46751 4.05743 8.94202 4.00601C9.5957 3.9238 10.2542 3.88604 10.913 3.89301H15.12C16.1445 3.81852 17.1601 4.12794 17.969 4.76102C18.3059 5.09735 18.5662 5.50237 18.7322 5.94849C18.8982 6.3946 18.966 6.87129 18.931 7.34601V13.666H15.497V12.572C15.2875 12.7965 15.0641 13.0076 14.828 13.204C14.4304 13.5319 13.9417 13.7298 13.428 13.771C13.0548 13.8065 12.6799 13.8225 12.305 13.819H9.83502C9.3332 13.8239 8.83174 13.7905 8.33502 13.719C7.93008 13.6659 7.54092 13.5279 7.19302 13.314C6.87594 13.1093 6.62401 12.8182 6.46701 12.475C6.28164 12.0369 6.19461 11.5634 6.21202 11.088L6.22201 10.283ZM12.675 11.547C13.1665 11.5532 13.658 11.5311 14.147 11.481C14.429 11.4566 14.7055 11.3891 14.967 11.281C15.1193 11.2218 15.2439 11.1076 15.316 10.961C15.3693 10.8226 15.3951 10.6752 15.392 10.527C15.3956 10.3734 15.3733 10.2202 15.326 10.074C15.2719 9.93948 15.167 9.83171 15.034 9.77402C14.8236 9.68394 14.6007 9.62659 14.373 9.604C13.9785 9.56185 13.5818 9.54349 13.185 9.54901H11.585C11.2721 9.54378 10.9592 9.56553 10.65 9.61401C10.449 9.64153 10.2562 9.71214 10.085 9.82102C9.95959 9.90624 9.86354 10.0281 9.81001 10.17C9.75652 10.3346 9.7315 10.5071 9.73602 10.68C9.72836 10.8205 9.76393 10.9599 9.83795 11.0795C9.91197 11.1991 10.0209 11.2932 10.15 11.349C10.629 11.5133 11.1357 11.5813 11.641 11.549L12.675 11.547Z" fill="white"/>
<path d="M32.051 8.888C32.0712 9.18137 32.023 9.47541 31.9102 9.74698C31.7974 10.0185 31.6231 10.2602 31.401 10.453C30.873 10.8343 30.2291 11.0209 29.579 10.981H28.75C27.19 10.981 26.4097 10.5093 26.409 9.56598V4.03699H22.788V9.565C22.7737 10.1594 22.8561 10.7521 23.032 11.32C23.1709 11.7542 23.3923 12.1576 23.684 12.508C23.9468 12.8174 24.2715 13.0685 24.6371 13.245C24.9998 13.4198 25.3827 13.5495 25.777 13.631C26.1752 13.7129 26.579 13.7637 26.985 13.783C27.3944 13.801 27.7874 13.81 28.164 13.81C28.9805 13.8338 29.795 13.7158 30.571 13.461C30.8886 13.3427 31.1797 13.1627 31.4273 12.9313C31.675 12.6999 31.8744 12.4218 32.014 12.113H32.051V13.665H35.674V4.04199H32.051V8.888Z" fill="white"/>
<path d="M50.154 5.18904C49.8911 4.88026 49.5665 4.62989 49.201 4.45402C48.8384 4.27831 48.4555 4.14799 48.061 4.06602C47.6629 3.98476 47.259 3.93462 46.853 3.91603C46.4437 3.89669 46.0507 3.88735 45.674 3.88801C44.855 3.86568 44.0382 3.98372 43.259 4.23701C42.9411 4.3531 42.6501 4.53253 42.4037 4.76442C42.1572 4.9963 41.9603 5.2758 41.825 5.58601H41.788V4.03804H38.165V13.661H41.788V8.81202C41.7681 8.51849 41.8167 8.22435 41.9298 7.95277C42.043 7.68119 42.2176 7.43959 42.44 7.24702C42.9671 6.86504 43.6103 6.67772 44.26 6.71702H45.091C46.6497 6.71702 47.4294 7.1887 47.43 8.13203V13.66H51.051V8.13203C51.0651 7.53769 50.9827 6.94499 50.807 6.37703C50.667 5.94305 50.4454 5.53984 50.154 5.18904Z" fill="white"/>
<path d="M65.504 9.66001V8.03803C65.5248 7.33949 65.4191 6.64297 65.1921 5.98203C65.0068 5.47004 64.6715 5.02571 64.2301 4.707C63.7213 4.37116 63.1445 4.15226 62.541 4.06601C61.7235 3.93753 60.8966 3.87767 60.069 3.88703H57.543C56.9344 3.88135 56.3269 3.94135 55.7311 4.06601C55.2154 4.17381 54.7332 4.40393 54.325 4.737C53.9038 5.09948 53.5878 5.56851 53.4101 6.095C53.1745 6.81272 53.0659 7.566 53.0891 8.32102V9.24503C53.0532 10.0846 53.2013 10.9217 53.5231 11.698C53.7701 12.2504 54.1611 12.7264 54.655 13.076C55.1286 13.392 55.6673 13.5971 56.2311 13.676C56.8213 13.7644 57.4173 13.8081 58.0141 13.807H60.7301C61.3488 13.8095 61.967 13.7687 62.5801 13.685C63.1064 13.619 63.6188 13.4694 64.0981 13.242C64.5163 13.0408 64.8719 12.7297 65.127 12.342C65.3951 11.8956 65.5261 11.3803 65.504 10.86V10.446H62.1041C62.1041 10.5824 62.088 10.7184 62.056 10.851C62.0195 10.993 61.9329 11.117 61.812 11.2C61.6265 11.3228 61.418 11.4065 61.1991 11.446C60.8197 11.5174 60.4339 11.5489 60.0481 11.54H58.9341C58.362 11.5714 57.7899 11.4814 57.2551 11.276C57.07 11.1781 56.9188 11.0267 56.8212 10.8415C56.7236 10.6563 56.6842 10.446 56.7081 10.238V9.65201L65.504 9.66001ZM56.797 6.81101C56.8573 6.63132 56.9859 6.48259 57.155 6.39701C57.4034 6.27821 57.673 6.21024 57.948 6.19702C58.2934 6.16702 58.7601 6.15167 59.3481 6.151C59.8774 6.151 60.3107 6.16636 60.6481 6.19702C60.9282 6.21427 61.203 6.28201 61.459 6.39701C61.6425 6.48044 61.7896 6.62751 61.8731 6.81101C61.9568 7.03454 61.9952 7.2725 61.9861 7.51102H56.713C56.7058 7.27479 56.7341 7.03881 56.797 6.81101Z" fill="white"/>
</g>
<defs>
<clipPath id="clip0">
<rect width="65" height="14" fill="white" transform="translate(0.5)"/>
</clipPath>
</defs>
</svg>
