<svg viewBox="0 0 30 30" xmlns="http://www.w3.org/2000/svg"><path d="m-.00014366 14.5509c0-8.36434 6.54750366-14.5509 15.00004366-14.5509 8.4525 0 15 6.18656 15 14.5509 0 8.3597-6.5475 14.551-15 14.551-1.5141 0-2.9738-.2006-4.336-.5766-.2662-.0724-.5492-.0499-.80061.0638l-2.98875 1.3134c-.18033.0801-.37762.1146-.57444.1004s-.38711-.0766-.55408-.1818c-.16698-.1052-.30548-.2498-.4033-.4212-.09781-.1714-.15192-.3642-.15755-.5615l-.08813-2.6756c-.00565-.1609-.04359-.3189-.11155-.4648-.06797-.146-.16457-.2767-.28407-.3846-1.50388-1.3563-2.7012-3.0178-3.51211-4.8735-.810896-1.8557-1.2167201-3.863-1.19039117-5.888zm10.40064366-2.7393-4.39971 7.0022c-.43968.659.40032 1.4259 1.02563.9375l4.73628-3.5888c.1555-.1213.347-.1871.5442-.1871s.3887.0658.5442.1871l3.4959 2.6269c.2492.1849.5338.3165.8361.3865.3022.0701.6157.0772.9208.0208s.5954-.175.8526-.3485c.2573-.1734.4761-.398.6427-.6598l4.3997-7.0022c.4397-.659-.4003-1.41089-1.0256-.9375l-4.7363 3.5888c-.1528.1211-.3421.1869-.5371.1869-.1951 0-.3843-.0658-.5372-.1869l-3.5007-2.6269c-.2488-.1881-.534-.3223-.8376-.3942-.3035-.0719-.6187-.0799-.9254-.0233-.3068.0565-.5984.1762-.8564.3516-.258.1753-.4767.4024-.6421.6669z"/></svg>