<svg width="66" height="15" viewBox="0 0 66 15" fill="none" xmlns="http://www.w3.org/2000/svg">
<g clip-path="url(#clip0)">
<path d="M24.7525 0.993912C24.7246 0.99391 24.697 0.999419 24.6713 1.01015C24.6455 1.02088 24.6222 1.03661 24.6026 1.05641C24.583 1.07622 24.5674 1.09973 24.5569 1.12556C24.5465 1.1514 24.5412 1.17905 24.5415 1.20692V10.9769C24.5526 11.274 24.4918 11.5694 24.3644 11.838C24.237 12.1066 24.0466 12.3406 23.8095 12.5199C23.2873 12.8796 22.6687 13.0733 22.0346 13.0758C21.4006 13.0783 20.7805 12.8894 20.2555 12.5339C20.0201 12.3507 19.8325 12.1134 19.7085 11.8422C19.5846 11.5709 19.528 11.2737 19.5435 10.9759V1.20592C19.5438 1.17804 19.5385 1.15039 19.528 1.12456C19.5175 1.09873 19.502 1.07521 19.4824 1.0554C19.4628 1.0356 19.4394 1.0199 19.4137 1.00917C19.388 0.998442 19.3603 0.992903 19.3325 0.992905H18.1255C18.0976 0.992903 18.07 0.998442 18.0443 1.00917C18.0185 1.0199 17.9952 1.0356 17.9756 1.0554C17.9559 1.07521 17.9404 1.09873 17.93 1.12456C17.9195 1.15039 17.9142 1.17804 17.9145 1.20592V10.9759C17.8953 11.5088 17.998 12.0391 18.2146 12.5264C18.4312 13.0136 18.756 13.4451 19.1645 13.7879C19.982 14.4252 20.9964 14.757 22.0325 14.7259C23.0681 14.7709 24.0855 14.4435 24.9005 13.8029C25.3182 13.4627 25.6517 13.0308 25.8751 12.5406C26.0985 12.0504 26.2057 11.5153 26.1885 10.9769V1.20692C26.1887 1.17905 26.1835 1.1514 26.173 1.12556C26.1625 1.09973 26.147 1.07622 26.1274 1.05641C26.1078 1.03661 26.0844 1.02088 26.0587 1.01015C26.033 0.999419 26.0054 0.99391 25.9775 0.993912H24.7525Z" fill="white"/>
<path d="M38.0705 0.976913H39.4615C39.493 0.976913 39.5233 0.989451 39.5456 1.01177C39.5679 1.03408 39.5805 1.06435 39.5805 1.09591V14.4669C39.5805 14.4982 39.568 14.5282 39.5459 14.5504C39.5238 14.5725 39.4937 14.5849 39.4625 14.5849H38.0705C38.0547 14.5849 38.0392 14.5818 38.0247 14.5758C38.0102 14.5697 37.997 14.5609 37.9859 14.5497C37.9749 14.5386 37.9661 14.5253 37.9602 14.5108C37.9543 14.4962 37.9513 14.4806 37.9515 14.4649V1.09591C37.9515 1.06435 37.964 1.03408 37.9863 1.01177C38.0086 0.989451 38.0389 0.976913 38.0705 0.976913Z" fill="white"/>
<path d="M33.6086 7.1829C33.1289 6.89832 32.6323 6.64321 32.1216 6.41892C31.5363 6.18209 30.9778 5.88373 30.4556 5.52891C30.2662 5.38379 30.1122 5.19763 30.0052 4.98441C29.8981 4.77119 29.8408 4.53648 29.8376 4.29792C29.8265 4.05355 29.8733 3.81 29.9743 3.5872C30.0753 3.36439 30.2275 3.16864 30.4186 3.01591C30.8259 2.68507 31.3403 2.51501 31.8646 2.53791C32.3491 2.51659 32.8301 2.63051 33.2536 2.86692C33.5392 3.04104 33.7754 3.28548 33.9396 3.57691L34.0536 3.76389C34.0801 3.80761 34.1216 3.8402 34.1704 3.85548C34.2192 3.87076 34.2719 3.86769 34.3186 3.8469L35.4646 3.3469C35.518 3.32095 35.559 3.27495 35.5786 3.21891C35.5882 3.19115 35.5915 3.1616 35.5884 3.13239C35.5853 3.10318 35.5758 3.07502 35.5606 3.0499L35.4306 2.8119C35.1121 2.31985 34.6937 1.90026 34.2026 1.58036C33.7115 1.26046 33.1586 1.0474 32.5798 0.954994C32.001 0.862584 31.4093 0.89288 30.843 1.04395C30.2767 1.19502 29.7484 1.4635 29.2926 1.83192C28.948 2.14146 28.6718 2.51957 28.4819 2.94205C28.2919 3.36454 28.1924 3.82207 28.1895 4.28529C28.1867 4.7485 28.2807 5.20717 28.4655 5.63193C28.6503 6.0567 28.9218 6.43818 29.2626 6.7519C29.9279 7.27069 30.6636 7.69225 31.4476 8.00391C31.9666 8.23091 32.3956 8.44291 32.7286 8.62391C32.9709 8.74957 33.1981 8.90256 33.4056 9.0799C33.6601 9.29478 33.8631 9.56399 33.9999 9.86771C34.1366 10.1714 34.2034 10.5019 34.1956 10.8349C34.2205 11.1447 34.176 11.4561 34.065 11.7465C33.9541 12.0368 33.7797 12.2987 33.5546 12.5129C33.0258 12.9163 32.3693 13.1155 31.7056 13.0739C31.1117 13.1337 30.517 12.9677 30.0399 12.609C29.5627 12.2502 29.2381 11.7251 29.1306 11.1379L29.0616 10.8819C29.0534 10.854 29.0397 10.8281 29.0213 10.8056C29.0029 10.7831 28.9802 10.7645 28.9546 10.7509C28.902 10.7248 28.8413 10.7205 28.7856 10.7389L27.5796 11.1509C27.5282 11.1692 27.4858 11.2064 27.4611 11.2549C27.4364 11.3035 27.4312 11.3596 27.4466 11.4119L27.5156 11.6409C27.7317 12.57 28.2727 13.3912 29.041 13.9565C29.8093 14.5219 30.7543 14.794 31.7056 14.7239C32.3172 14.7357 32.9262 14.6413 33.5056 14.4449C34.2433 14.1911 34.8748 13.6977 35.2994 13.0432C35.7241 12.3888 35.9174 11.611 35.8486 10.8339C35.8613 10.3044 35.7644 9.7779 35.5639 9.2876C35.3635 8.79731 35.0637 8.35379 34.6836 7.9849C34.3587 7.6754 33.9978 7.40613 33.6086 7.1829Z" fill="white"/>
<path d="M56.0045 12.6109H53.1465C53.2655 12.5109 53.3865 12.4029 53.4985 12.2909C54.1518 11.6335 54.6635 10.8491 55.002 9.98623C55.3405 9.12335 55.4986 8.20026 55.4665 7.27392C55.4959 5.8569 55.1021 4.46329 54.3354 3.27124C53.5687 2.07918 52.4639 1.14282 51.1623 0.581874C49.8607 0.0209249 48.4214 -0.139145 47.0284 0.122127C45.6353 0.383398 44.3519 1.05416 43.342 2.04864C42.3321 3.04312 41.6418 4.31615 41.3591 5.70501C41.0765 7.09387 41.2144 8.53546 41.7553 9.84552C42.2962 11.1556 43.2155 12.2746 44.3956 13.0595C45.5758 13.8444 46.9632 14.2596 48.3805 14.2519C48.4033 14.256 48.4263 14.2583 48.4495 14.2589H56.0045C56.2125 14.2589 56.3795 14.1669 56.3795 14.0479V12.8229C56.3795 12.7049 56.2125 12.6109 56.0045 12.6109ZM48.4685 12.6109C47.413 12.5915 46.3859 12.265 45.5129 11.6714C44.6399 11.0778 43.9587 10.2428 43.5526 9.26834C43.1465 8.29389 43.033 7.22223 43.226 6.18432C43.419 5.14642 43.9102 4.18721 44.6395 3.42391C45.1402 2.92398 45.7387 2.53275 46.3976 2.27465C47.0564 2.01656 47.7614 1.89715 48.4685 1.92391C49.5256 1.94705 50.5534 2.2759 51.4276 2.87072C52.3018 3.46554 52.9849 4.30086 53.3945 5.27569C53.8041 6.25052 53.9225 7.3231 53.7354 8.3638C53.5484 9.40449 53.0639 10.3687 52.3405 11.1399C51.8252 11.6307 51.2168 12.0133 50.5513 12.2653C49.8858 12.5172 49.1766 12.6334 48.4655 12.6069L48.4685 12.6109Z" fill="white"/>
<path d="M63.8705 7.47294C64.3698 7.18798 64.778 6.76725 65.0477 6.25959C65.3175 5.75194 65.4377 5.17818 65.3945 4.60493C65.4141 4.10727 65.3246 3.61135 65.1321 3.15199C64.9397 2.69263 64.649 2.28098 64.2805 1.94593C63.5371 1.28109 62.5674 0.925799 61.5705 0.95292C60.6248 0.923412 59.7015 1.24387 58.9775 1.85291C58.2662 2.47456 57.8248 3.34856 57.7465 4.28993L57.7145 4.58994C57.7112 4.62179 57.7144 4.65396 57.7239 4.68455C57.7333 4.71513 57.7488 4.74348 57.7695 4.76792C57.7911 4.79169 57.8176 4.81064 57.847 4.82356C57.8765 4.83648 57.9083 4.84308 57.9405 4.84294H59.2725C59.325 4.84333 59.376 4.82549 59.4168 4.79249C59.4577 4.75949 59.4859 4.71336 59.4965 4.66194L59.5405 4.44892C59.5544 4.19747 59.6183 3.95131 59.7282 3.72474C59.8382 3.49817 59.9921 3.29572 60.1809 3.12916C60.3698 2.9626 60.5899 2.83525 60.8285 2.75453C61.067 2.6738 61.3192 2.6413 61.5705 2.65891C61.836 2.64704 62.1011 2.69011 62.3493 2.78544C62.5974 2.88077 62.8232 3.02631 63.0125 3.21293C63.1954 3.3957 63.3381 3.6146 63.4316 3.85566C63.5251 4.09672 63.5673 4.35464 63.5555 4.61292C63.5767 4.86006 63.5443 5.10886 63.4606 5.34236C63.3769 5.57585 63.2438 5.78853 63.0705 5.96592C62.6783 6.30264 62.1704 6.47338 61.6545 6.44193H60.6635C60.6337 6.44193 60.6042 6.44782 60.5768 6.45924C60.5493 6.47066 60.5243 6.48737 60.5033 6.50846C60.4823 6.52955 60.4657 6.5546 60.4544 6.58213C60.4431 6.60967 60.4373 6.63916 60.4375 6.66892V8.22694C60.4373 8.2567 60.4431 8.28619 60.4544 8.31373C60.4657 8.34126 60.4823 8.36628 60.5033 8.38737C60.5243 8.40846 60.5493 8.4252 60.5768 8.43662C60.6042 8.44804 60.6337 8.45393 60.6635 8.45393H61.6565C62.1201 8.47293 62.5635 8.64928 62.9135 8.95393C63.1563 9.16098 63.354 9.4157 63.4943 9.70231C63.6346 9.98892 63.7146 10.3013 63.7292 10.6201C63.7438 10.9388 63.6928 11.2572 63.5793 11.5555C63.4659 11.8537 63.2923 12.1255 63.0695 12.3539C62.8557 12.5641 62.6021 12.7294 62.3236 12.8401C62.045 12.9509 61.7472 13.0049 61.4475 12.9989C60.9618 12.9977 60.4911 12.8304 60.1135 12.5249C59.7182 12.2455 59.432 11.8377 59.3035 11.3709L59.2555 11.1709C59.2422 11.1217 59.2131 11.0782 59.1726 11.0473C59.1321 11.0164 59.0824 10.9997 59.0315 10.9999H57.7315C57.6974 10.9997 57.6637 11.0075 57.6332 11.0226C57.6026 11.0377 57.576 11.0597 57.5555 11.0869C57.5339 11.113 57.5185 11.1437 57.5106 11.1766C57.5026 11.2095 57.5022 11.2438 57.5095 11.2769L57.5855 11.6059C57.7457 12.5015 58.2258 13.3084 58.9363 13.8766C59.6469 14.4448 60.5396 14.7356 61.4485 14.6949C62.5169 14.7269 63.5551 14.3372 64.3385 13.6099C64.7233 13.2457 65.026 12.8035 65.226 12.3128C65.4261 11.8222 65.519 11.2944 65.4985 10.7649C65.5455 10.1209 65.4194 9.47594 65.1331 8.89707C64.8468 8.31821 64.4109 7.8265 63.8705 7.47294Z" fill="white"/>
<path d="M13.2224 0.80692C13.2119 0.76281 13.1872 0.723357 13.1522 0.694494C13.1172 0.66563 13.0738 0.648919 13.0284 0.646917C12.9835 0.644608 12.9389 0.656632 12.9012 0.681249C12.8634 0.705866 12.8345 0.7418 12.8185 0.78391L8.65046 10.5839L4.48246 0.801915C4.46663 0.760124 4.43788 0.724467 4.4004 0.700139C4.36291 0.675812 4.31864 0.664096 4.27402 0.666662C4.22941 0.669227 4.18677 0.685958 4.15232 0.714422C4.11787 0.742886 4.0934 0.781595 4.08246 0.824926L0.507452 14.1699C0.498886 14.2008 0.49769 14.2333 0.503942 14.2647C0.510194 14.2961 0.523731 14.3257 0.543462 14.3509C0.563735 14.3764 0.589402 14.3971 0.618627 14.4114C0.647852 14.4258 0.679913 14.4335 0.712469 14.4339H1.95545C2.00194 14.4326 2.04672 14.416 2.08286 14.3868C2.119 14.3575 2.14451 14.3171 2.15546 14.2719L4.56247 5.03293L8.45246 14.1389C8.46702 14.1803 8.49409 14.2162 8.52991 14.2416C8.56574 14.267 8.60857 14.2806 8.65247 14.2806C8.69637 14.2806 8.73917 14.267 8.775 14.2416C8.81082 14.2162 8.83789 14.1803 8.85245 14.1389L12.7415 5.05091L15.1325 14.2719C15.1431 14.3173 15.1685 14.3578 15.2047 14.3872C15.241 14.4165 15.2859 14.4329 15.3325 14.4339H16.5965C16.6249 14.4361 16.6535 14.4322 16.6803 14.4224C16.7071 14.4126 16.7315 14.3972 16.7519 14.3773C16.7723 14.3573 16.7881 14.3331 16.7984 14.3065C16.8087 14.2799 16.8131 14.2514 16.8115 14.2229C16.8111 14.1853 16.8019 14.1483 16.7845 14.1149L13.2224 0.80692Z" fill="white"/>
</g>
<defs>
<clipPath id="clip0">
<rect width="65" height="15" fill="white" transform="translate(0.5)"/>
</clipPath>
</defs>
</svg>
