<?xml version="1.0" encoding="UTF-8"?>
<svg id="Calque_1" data-name="Calque 1" xmlns="http://www.w3.org/2000/svg" viewBox="0 0 1000 1000">
  <defs>
    <style>
      .cls-1 {
        fill: #fff;
      }
    </style>
  </defs>
  <g>
    <path class="cls-1" d="M738.38,702.65c-6.48,0-11.94-.82-13.47-1.62-3-1.55-4.06-3.21-4.06-6.33l.09-118.05c0-2.63,1.29-5,3.3-6.05,2.39-1.24,7.05-1.24,13.5-1.24h43.67c24.1,0,40.86,4.7,49.83,13.98,8.99,9.3,13.54,26.7,13.54,51.73s-4.76,42.77-14.15,52.72c-9.35,9.91-26.18,14.93-50.01,14.93h0l-42.25-.07Zm41.75-108.17c-3.15,0-4.45,0-7.37,.14-1.18,.06-2.11,1.03-2.11,2.22v78.4c0,.59,.23,1.16,.65,1.57,.42,.42,.98,.65,1.57,.65,0,0,7.89-.04,7.89-.04,5.67,0,7.48-5.62,9.41-11.56,2.82-8.73,4.13-18.7,4.13-31.37,0-14.15-1.13-23.57-3.56-29.64-1.75-4.38-4.15-10.38-10.62-10.38Z"/>
    <path class="cls-1" d="M899.88,565.68c-34.54,0-51.36,13.86-51.4,42.38-.01,6.54,1.36,12.4,4.08,17.42,2.73,5.04,6.15,8.96,10.16,11.65,4.41,2.95,9.29,5.69,14.51,8.15,5.19,2.44,10.05,4.31,14.43,5.58,4.94,1.43,9.17,3.14,12.57,5.07,5.7,3.27,6.89,7.18,6.88,9.9,0,3.71-1.53,6.75-4.42,8.79-2.54,1.79-6.68,2.59-13.42,2.59-6.32,0-15.01-1.97-26.69-5.98-10.25-3.52-14.35-4.84-15.95-5.32-.62,.66-2.17,2.84-3.89,9.31-2.14,8.02-3.23,15.84-3.27,23.24,.2,.32,1.13,1.49,4.56,3.26,4.24,2.19,11.56,4.26,21.78,6.16,10.39,1.93,21.53,2.92,33.09,2.93h.31c11.31,0,20.63-.96,27.67-2.86,6.97-1.87,12.42-4.22,16.18-6.98,3.76-2.74,6.87-6.03,9.24-9.77,3.9-6.14,5.88-13.08,5.89-20.64,.01-7.28-1.38-13.7-4.13-19.11-2.75-5.4-6.19-9.59-10.22-12.47-4.4-3.14-9.23-5.92-14.35-8.26-5.19-2.36-9.99-4.13-14.27-5.26-4.82-1.27-8.96-2.72-12.29-4.32-5.92-2.83-7.16-6.85-7.16-9.72,0-3.99,2.03-7.23,5.69-9.11,2.87-1.47,7.43-2.16,14.33-2.16,6.96,.01,15.11,2.15,25.06,6.54,2.16,.89,3.27,1.28,3.81,1.45,.5-.35,2.67-2.11,5.84-9.82,3.19-7.77,4.83-15.08,4.88-21.71-.21-.3-1.06-1.3-3.85-2.78-3.71-1.96-10.49-3.81-20.13-5.5-9.87-1.72-21.76-2.61-35.35-2.63h-.2Z"/>
    <path class="cls-1" d="M563.4,717.4m7.92-45.58l1.03,.09c2.1,.37,3.88,1.82,4.64,3.79,6.05,15.69,11.28,27.58,15.53,35.34,3.37,6.14,3.96,8.61,6.74,8.61,3.34,.7,9.99-.7,17.54-3.06,9.33-2.92,12.01-4.92,18.51-10.3,12.81-10.58,9.97-13.37,9.75-13.74s-1.87-4.13-11.28-16.53c-7.14-9.41-11.76-14.28-16.04-19.04-4.38-4.85-8.67-9.51-11.53-12.65-2.1-2.3-2.09-5.76-.06-8.12,12.81-14.94,20.76-24.63,27-32.85,8.35-10.99,10.85-15.22,10.86-15.35,2.71-3.76-6.24-13.12-17.04-19.85-12.39-7.72-27.75-7.81-29.53-2.9-6.08,13.79-16.94,36.34-26.62,47.67-1.91,2.23-5.47,6.32-8.21,5.4-2.92-.98-3.23-7.07-3.28-8.26l1.15-33.86c.52-7.2-.84-8.04-3.97-9.29-13.9-5.56-23.7-4.49-40.61-.21-4.17,1.06-8.46,2.71-8.36,6.9l-2.63,139.15c-.19,5.53,14.2,8.27,26.22,8.04,12.32-.24,26.93-1.15,26.41-6.16l.34-28.44c.04-1.43,.56-2.8,1.49-3.87l7.34-8.43c1.15-1.33,2.82-2.09,4.58-2.09Z"/>
    <path class="cls-1" d="M671.02,707.22c-5.75,0-9.25-1.59-11.91-3.15-1.88-1.1-2.91-3.53-2.91-6.85l.97-113.15c.35-5.83,2.15-7.92,9.21-10.54,7.22-2.67,15.45-4.03,24.46-4.03s11.89,2.19,13.48,4.34c.78,.96,1.56,4.64,1.56,10.65l-.34,108.66c0,1.87-.71,8.11-9.8,10.23-8.2,1.91-13.52,2.95-21.58,3.7-1.11,.1-2.15,.14-3.14,.14Z"/>
  </g>
  <g>
    <path class="cls-1" d="M770.56,402.73h36.74v130.74h-36.74v-130.74Z"/>
    <path class="cls-1" d="M894.66,402.78c-37.25,0-67.46,29.28-67.46,65.37s30.16,65.37,67.46,65.37,67.46-29.28,67.46-65.37-30.21-65.37-67.46-65.37Zm0,100.48c-20.04,0-36.24-15.74-36.24-35.11s16.25-35.11,36.24-35.11,36.24,15.74,36.24,35.11-16.2,35.11-36.24,35.11Z"/>
    <g>
      <g>
        <path class="cls-1" d="M509.21,356.24h-39.93c-1.67,0-2.99-.44-3.95-1.32-1.01-.93-1.52-2.06-1.52-3.58v-24.96h45.35c1.52,0,3.29-.2,4.81-1.62,1.37-1.28,2.02-2.84,2.02-4.66s-.71-3.43-2.08-4.76c-1.37-1.37-2.99-2.01-4.91-2.01h-45.14v-9.02c0-1.77-.66-3.33-1.97-4.61-1.32-1.32-2.94-1.96-4.86-1.96s-3.54,.69-4.91,2.01c-1.42,1.37-2.13,2.94-2.13,4.81v52.47c0,8.39,4.2,12.46,12.75,12.46l46.66-.05c1.82,0,3.44-.64,4.81-1.91,1.37-1.28,2.02-2.84,2.02-4.71,0-1.72-.66-3.24-2.08-4.61-1.37-1.32-2.99-1.96-4.96-1.96Z"/>
        <path class="cls-1" d="M584.67,313.33h-32.49c-1.62,0-3.34,.2-4.81,1.52-1.32,1.28-2.02,2.84-2.02,4.71s.71,3.43,2.08,4.76c1.42,1.32,3.04,2.01,4.96,2.01h26.01c1.62,0,2.83,.44,3.85,1.37,.96,.93,1.42,2.11,1.42,3.63l.05,19.96c0,1.52-.51,2.65-1.47,3.53-1.01,.88-2.33,1.37-3.95,1.37h-33.1c-1.72,0-3.04-.44-4.05-1.37-1.01-.88-1.52-2.06-1.52-3.53l-.1-47.13c0-1.77-.66-3.33-1.97-4.61-1.32-1.32-2.88-2.01-4.81-2.01s-3.54,.69-4.96,2.01c-1.37,1.32-2.08,2.94-2.08,4.76v52.33c0,8.39,4.45,12.65,13.16,12.65h45.4c8.76,0,13.16-4.22,13.16-12.55v-31.19c.05-8.09-4.15-12.06-12.75-12.21Z"/>
        <path class="cls-1" d="M434.21,313.23h-37.45c-.66,0-1.21-.05-1.47-.05-.96,0-1.62-.34-2.13-1.13-1.27-1.72-4-2.35-6.12-2.35s-4,.83-5.42,2.26c-1.32,1.37-1.52,2.89-1.52,4.66v7.85c-.05,.34-.05,.69-.05,1.08v37.17c0,1.77,.71,3.33,2.08,4.71,1.37,1.32,3.04,2.01,4.96,2.01s3.49-.64,4.81-1.91c1.32-1.28,1.97-2.84,1.97-4.71v-31.39c0-1.57,.56-2.89,1.52-3.78,1.01-.88,2.28-1.32,3.95-1.37h35.07c2.02,0,3.54-.54,4.76-1.72,1.37-1.28,2.08-2.84,2.08-4.66s-.71-3.43-2.13-4.76c-1.32-1.32-2.94-1.91-4.91-1.91Z"/>
        <g>
          <path class="cls-1" d="M671.11,312.93h-50.86c-8.45,.15-12.75,4.32-12.7,12.26,0,.15-.25,17.31-.25,19.86v17.7c0,1.77,.66,3.33,2.02,4.66,1.32,1.28,2.94,1.96,4.76,1.96s3.54-.69,4.86-1.96c1.37-1.37,2.13-2.94,2.13-4.66v-11.67l.05-12.7,.05-9.12c0-2.16,1.06-3.29,3.14-3.29l46.92-.05c1.62,0,3.34-.15,4.76-1.52,1.32-1.28,2.02-2.84,2.02-4.71s-.71-3.48-2.08-4.76c-1.32-1.32-2.94-2.01-4.81-2.01Z"/>
          <path class="cls-1" d="M658.97,339.27c-1.47-1.28-3.34-1.96-5.47-1.96h-13.26c-2.13,0-3.95,.69-5.47,1.96-1.57,1.32-2.38,3.04-2.38,5.05h0c0,2.01,.76,3.73,2.38,5.05,1.52,1.32,3.34,1.96,5.47,1.96h13.26c2.13,0,4-.64,5.47-1.96,1.57-1.32,2.38-3.04,2.38-5.05h0c0-2.01-.81-3.73-2.38-5.05Z"/>
        </g>
      </g>
      <path class="cls-1" d="M505.72,402.68v76.45c0,17.02,6.02,30.5,17.97,39.97,11.99,9.56,26.62,14.37,43.42,14.37s31.38-4.86,43.37-14.37c11.89-9.46,17.92-22.9,17.92-39.97v-76.45h-33.4v76.45c0,7.5-2.83,13.44-8.35,17.56-5.42,4.07-11.99,6.13-19.59,6.13s-14.17-2.06-19.59-6.13c-5.57-4.17-8.35-10.05-8.35-17.56v-76.45h-33.4Z"/>
      <path class="cls-1" d="M670.86,501.94l-27.33-99.21h34.47l21.21,76.7,21-76.65,34.01-.05-27.33,99.26c-3.04,11.08-6.17,19.13-9.46,24.08-3.24,4.95-9.67,7.45-19.23,7.45-8.4,0-14.42-2.75-18.02-8.29-3.64-5.59-6.73-13.34-9.31-23.29Z"/>
      <path class="cls-1" d="M452.68,402.73v10.2c-9.67-5.93-20.95-9.56-33.15-10.1-1.01-.05-1.97-.1-2.94-.1-37.25,0-67.46,29.28-67.46,65.37h0v.05c0,36.09,30.16,65.37,67.46,65.37,13.26,0,25.66-3.73,36.08-10.15v10h31.38v-130.64h-31.38Zm.1,65.42c0,19.42-16.25,35.11-36.24,35.11s-36.24-15.74-36.24-35.11,16.25-35.11,36.24-35.11c20.04-.05,36.24,15.69,36.24,35.11Z"/>
      <g>
        <path class="cls-1" d="M248.52,316.86c.46,.69,1.52,2.6,1.97,3.33-32.19-1.03-69.99,9.56-104.96,31.78-37.81,24.03-63.11,57.23-73.84,88.71-2.73-2.99-4.2-4.56-6.02-7.5-9.11-14.96-9.97-34.92-2.68-54.19,10.98-18.68,31.18-40.75,62.76-59.34,17.61-10.35,35.68-19.67,53.75-24.18,29.61-3.78,56.18,2.11,69.03,21.38Z"/>
        <path class="cls-1" d="M324.39,317.25c-25.56-38.06-80.37-48.21-141.71-27.61,31.53-4.22,59.31,3.83,73.03,24.23,22.67,33.79-6.28,89.99-59.31,123.83-53.09,33.84-114.48,33.84-137.15,.05-10.53-15.69-10.83-35.85-2.88-56.4-27.33,40.31-34.06,83.81-13.06,115.1,33.2,49.43,123.03,49.43,200.67-.05,77.58-49.53,113.62-129.71,80.42-179.14Z"/>
      </g>
    </g>
  </g>
</svg>