<svg xmlns="http://www.w3.org/2000/svg" viewBox="0 0 279.33 79.86" fill="#000"><path d="M128.65 23.95h-12.39.03c-.52 0-.93-.14-1.23-.42-.31-.29-.47-.66-.47-1.14v-7.97h14.03c.47 0 1.02-.06 1.48-.52.42-.4.62-.91.62-1.49s-.21-1.09-.64-1.52-.93-.64-1.52-.64h-13.97V7.36c0-.57-.21-1.07-.6-1.48a2.03 2.03 0 0 0-1.5-.63c-.58 0-1.1.22-1.52.64a2.11 2.11 0 0 0-.65 1.53v16.75c0 2.68 1.3 3.98 3.95 3.98h14.43c.57 0 1.07-.21 1.48-.61.42-.41.63-.91.63-1.5 0-.56-.2-1.03-.64-1.47-.41-.41-.91-.61-1.52-.61zM151.3 9.9h-10.05c-.51 0-1.04.05-1.48.48a2.06 2.06 0 0 0-.62 1.5c0 .58.22 1.09.64 1.53a2.1 2.1 0 0 0 1.53.64h.32.1 7.64c.5 0 .88.15 1.19.44.29.3.44.68.44 1.16l.02 6.38c0 .48-.15.85-.46 1.13-.31.29-.72.43-1.22.43h-10.24c-.53 0-.93-.15-1.26-.43-.31-.28-.46-.65-.46-1.13l-.02-15.05c0-.56-.2-1.06-.61-1.48-.4-.42-.9-.63-1.49-.63s-1.1.22-1.53.65c-.43.42-.65.94-.65 1.52v16.71c0 2.68 1.38 4.04 4.07 4.04h14.06c2.7 0 4.06-1.35 4.06-4.01v-9.96c0-2.61-1.3-3.89-3.96-3.92zm-45.52.31H94.2c-.2 0-.37 0-.45-.01-.3 0-.49-.11-.66-.37-.4-.55-1.24-.76-1.89-.76s-1.24.26-1.68.72c-.4.44-.48.92-.48 1.49v2.51c-.01.11-.01.22-.01.34V26c0 .57.22 1.07.64 1.5.43.42.94.64 1.53.64s1.09-.2 1.49-.61c.41-.41.61-.91.61-1.5V16c0-.5.17-.93.47-1.2.31-.28.71-.43 1.22-.44h10.86c.63 0 1.09-.18 1.47-.54.42-.41.64-.91.64-1.5s-.22-1.1-.65-1.53c-.4-.4-.91-.6-1.52-.6zm72.27-.1h-15.73c-2.62.05-3.94 1.38-3.92 3.92l-.08 6.34v5.66c0 .56.21 1.07.63 1.49.41.41.91.62 1.48.62a2.1 2.1 0 0 0 1.51-.62c.43-.44.65-.94.65-1.49V22.3l.02-4.05v-2.91c0-.69.34-1.04.99-1.04h14.51c.51 0 1.03-.06 1.48-.49a2.07 2.07 0 0 0 .63-1.5c0-.58-.22-1.11-.64-1.52-.45-.45-.95-.67-1.52-.67zm-3.75 8.41a2.49 2.49 0 0 0-1.69-.63h-4.11c-.66 0-1.23.22-1.69.63-.49.43-.73.97-.73 1.61h0c0 .64.24 1.19.73 1.62.47.42 1.03.63 1.69.63h4.11c.66 0 1.23-.21 1.69-.63.49-.43.73-.98.73-1.62h0c0-.64-.25-1.19-.73-1.62zm29.93 19.57V62.5c0 5.44 1.87 9.74 5.55 12.76 3.71 3.05 8.23 4.6 13.43 4.6s9.71-1.55 13.42-4.6c3.68-3.02 5.55-7.32 5.55-12.76V38.09h-10.33V62.5c0 2.4-.87 4.28-2.58 5.61-1.67 1.3-3.71 1.95-6.06 1.95s-4.39-.65-6.06-1.95c-1.72-1.32-2.59-3.21-2.59-5.61V38.09h-10.33zm-93.08 0v3.26a20.7 20.7 0 0 0-10.25-3.22 14.06 14.06 0 0 0-.91-.03c-11.53 0-20.88 9.35-20.88 20.87h0c0 11.54 9.34 20.89 20.87 20.89 4.11 0 7.94-1.19 11.17-3.25v3.2h9.71V38.09h-9.71zm.04 20.89a11.22 11.22 0 0 1-22.44 0 11.21 11.21 0 0 1 11.22-11.21c6.2 0 11.22 5.02 11.22 11.21zm86.48-20.89h-11.16-11.37-11.16v9.66h11.16v32.1h11.37v-32.1h11.16v-9.66zm-50.72 9.66h0 9.85v-9.66h-9.85a20.87 20.87 0 0 0-20.87 20.87c0 11.53 9.34 20.88 20.87 20.88h0 9.85v-9.66h-9.85a11.22 11.22 0 0 1-11.22-11.22 11.21 11.21 0 0 1 11.22-11.21zm113.43.12h17.01v-9.78H260.3c-6.98.13-12.6 5.74-12.6 12.66s5.52 12.43 12.41 12.65h0l3.8.01h0 2.74c1.54.08 2.77 1.33 2.77 2.88s-1.23 2.8-2.77 2.88h-17.36v9.78h17.44c6.98-.13 12.6-5.74 12.6-12.66s-5.52-12.43-12.41-12.65h0l-3.01-.01h0-3.53c-1.54-.08-2.77-1.33-2.77-2.88s1.23-2.8 2.77-2.88zM.35 8.15L8.51 0l67.34 16.3v16.31L33.32 77.98 17.37 25.17l10.28 2.48 8.15 26.23 29.07-30.13L.35 8.15zm14.54 14.89l39.34 9.57 7.8-8.15L0 9.57l20.56 66.99 10.99 2.48-16.66-56z"/></svg>
