<?xml version="1.0" encoding="utf-8"?>
<!-- Generator: Adobe Illustrator 26.0.3, SVG Export Plug-In . SVG Version: 6.00 Build 0)  -->
<svg version="1.1" id="Calque_1" xmlns="http://www.w3.org/2000/svg" xmlns:xlink="http://www.w3.org/1999/xlink" x="0px" y="0px"
	 viewBox="0 0 54 30" style="enable-background:new 0 0 54 30;" xml:space="preserve" width="54" height="30">
<style type="text/css">
	.st0{fill:#FFFFFF;}
</style>
<g id="Layer_2">
	<g id="Calque_1_00000119110685224970761720000003291625843144068508_">
		<path class="st0" d="M27.2,25l3.8-9.6h4c1.8,4.8,3.8,9.6,5.6,14.4h-4.4l-0.8-2.4h-5.2l-0.8,2.4h-4.8c-1.2-3.2-2.4-6.4-3.4-9.8l0,0
			c-1.2,3.2-2.2,6.4-3.4,9.8h-4.4L10,20l0,0c-1,3.2-2.2,6.4-3.2,9.8c-1.4,0-2.8,0-4,0c0-0.4,5.2-13.6,5.6-14.4H12
			c1.2,2.8,2.2,5.8,3.4,8.8l3.4-8.8H23L27.2,25L27.2,25z M32.8,20L32.8,20c-0.6,1.4-1,2.8-1.6,4.2H34C33.8,22.8,33.4,21.4,32.8,20z"
			/>
		<path class="st0" d="M37.6,14.6h-7.4c-0.2-0.8-0.6-1.6-0.8-2.4c-0.2,0-0.2,0-0.4,0c-1.4,0-2.8,0-4.2,0c-0.4,0-0.4,0-0.6,0.4
			c-0.2,0.6-0.4,1.4-0.6,2h-4.2c2-4.8,3.8-9.6,5.6-14.4h4C30.6,4,32,8,33.6,11.8c0.2-0.6,0-1,0-1.6s0-1.2,0-1.8V0.2
			c0.2,0,0.4,0,0.4,0c2,0,4.2,0,6.2,0c0.8,0,1.6,0,2.4,0.4c2,0.8,3.2,2.6,3,4.8c0,1.8-1,3-2.6,4c0,0,0,0-0.2,0.2l3.2,5.2
			c-0.2,0-0.2,0-0.4,0c-1.2,0-2.6,0-3.8,0c-0.2,0-0.4,0-0.6-0.4c-0.8-1.2-1.6-2.6-2.4-3.8c-0.2-0.2-0.4-0.4-0.6-0.4s-0.6,0-1,0
			L37.6,14.6z M37.6,7h0.2c0.6,0,1.4,0,2,0c0.2,0,0.4,0,0.6,0c0.8-0.2,1.2-0.8,1.2-1.8s-0.4-1.4-1.2-1.6c-0.2,0-0.4,0-0.6,0
			c-0.6,0-1.2,0-1.8,0c0,0-0.2,0-0.4,0V7z M27,4.8L27,4.8L25.4,9h3C28,7.6,27.4,6.2,27,4.8z"/>
		<path class="st0" d="M52.2,17.6l-3,2.4c-0.8-1-2-1.4-3.2-1.2c-1,0-1.8,0.4-2.4,1.2c-1.4,1.6-1.2,4.2,0.4,5.6
			c0.8,0.6,1.8,1,2.8,0.8c1,0,2-0.6,2.6-1.6l2.8,2.6c-0.2,0.2-0.2,0.4-0.4,0.4c-1.2,1.4-2.8,2-4.6,2.2c-0.8,0-1.8,0-2.8-0.2
			c-3.4-0.8-5.6-3.6-5.8-7c0-4.2,3-6.8,5.6-7.4c0.2,0,0.4,0,0.6,0c0.6,0,1.4,0,2-0.2c0.2,0,0.4,0,0.6,0c1.4,0.2,2.8,0.6,3.8,1.6
			c0,0,0.2,0.2,0.4,0.4C52,17.4,52,17.4,52.2,17.6z"/>
		<path class="st0" d="M14,3.4h-4V0h11.6v3.4h-3.8v11H14V3.4z"/>
		<path class="st0" d="M5.8,6.4c0.8,0,1.6,0,2.4,0c1,0,2,0,2.8,0h0.4v5.8c-0.2,0-0.4,0-0.6,0c-1.6,0-3,0-4.6,0c-0.2,0-0.4,0-0.6,0
			l0,0V12C5.8,10.2,5.8,8.4,5.8,6.4C5.8,6.6,5.8,6.4,5.8,6.4L5.8,6.4z"/>
		<path class="st0" d="M5.8,6.4h-4V2.2H6C5.8,3.6,5.8,5,5.8,6.4L5.8,6.4z"/>
		<path class="st0" d="M5.8,12.2c0,0.4,0,0.8,0,1s0,0.4,0,0.8h-2v-2C4.6,12.2,5.4,12,5.8,12.2L5.8,12.2z"/>
	</g>
</g>
</svg>
