<svg width="66" height="22" viewBox="0 0 66 22" fill="none" xmlns="http://www.w3.org/2000/svg">
<g clip-path="url(#clip0)">
<path d="M22.348 4.04199H17.295V18.632H22.348V4.04199Z" fill="white"/>
<path d="M30.758 0H28.89V4.04102H30.69C33.767 4.04102 35.161 5.722 35.161 8.155C35.161 10.588 33.771 12.155 30.693 12.155H28.893V4.03601H23.84V18.627H28.893V16.198H30.765C36.596 16.198 39.704 12.979 39.704 8.11401C39.704 3.24901 36.593 0 30.758 0Z" fill="white"/>
<path d="M59.371 10.294L64.6151 4.04099H58.799L52.375 11.677V4.069L47.321 4.04099V18.631H52.403L56.057 14.259L59.819 21.089H65.5L59.371 10.294Z" fill="white"/>
<path d="M0.5 4.04099V8.672H5.74399V18.631H10.796V8.672H15.802V4.04099H0.5Z" fill="white"/>
<path d="M45.826 4.04199H40.7729V13.101H45.826V4.04199Z" fill="white"/>
<path d="M45.826 14.592H40.7729V18.634H45.826V14.592Z" fill="white"/>
</g>
<defs>
<clipPath id="clip0">
<rect width="65" height="22" fill="white" transform="translate(0.5)"/>
</clipPath>
</defs>
</svg>
