<svg width="66" height="15" viewBox="0 0 66 15" fill="none" xmlns="http://www.w3.org/2000/svg">
<g clip-path="url(#clip0)">
<path d="M31.173 2.78101C30.8743 2.58484 30.5208 2.48918 30.164 2.508C29.7658 2.5046 29.3728 2.59832 29.019 2.78101C28.6531 2.96362 28.3539 3.25683 28.164 3.61903L22.691 13.981H25.291L26.574 11.55H29.892L30.149 13.981H32.749L31.688 3.61903C31.6763 3.44811 31.6234 3.28256 31.5337 3.13661C31.444 2.99065 31.3202 2.86862 31.173 2.78101ZM27.804 9.21302L29.36 6.27201L29.652 9.21302H27.804Z" fill="white"/>
<path d="M24 2.62601L19.878 10.563L19.125 2.62601H16.51L17.793 12.959C17.805 13.1191 17.8497 13.2751 17.9243 13.4172C17.9989 13.5594 18.1018 13.6848 18.2266 13.7857C18.3515 13.8866 18.4958 13.9609 18.6504 14.0039C18.8051 14.047 18.967 14.0579 19.126 14.036C19.4993 14.0463 19.8678 13.9506 20.1889 13.76C20.5099 13.5694 20.7704 13.2917 20.94 12.959L26.616 2.62601H24Z" fill="white"/>
<path d="M64.512 1.355L63.878 0.147995L61.444 1.42L61.774 2.12001L64.512 1.355Z" fill="white"/>
<path d="M9.71899 0.00500488L4.64799 9.76498L3.72099 0.00500488H0.5L2.07899 12.711C2.09365 12.9081 2.14858 13.1001 2.24036 13.2752C2.33214 13.4502 2.45882 13.6046 2.61261 13.7288C2.7664 13.853 2.94401 13.9443 3.13448 13.9971C3.32494 14.05 3.52422 14.0632 3.72 14.036C4.17936 14.0493 4.63303 13.9318 5.0282 13.6973C5.42336 13.4627 5.74373 13.1206 5.952 12.711L12.939 0.00500488H9.71899Z" fill="white"/>
<path d="M10.55 13.981H13.03L15.441 2.62601H12.961L10.55 13.981Z" fill="white"/>
<path d="M60.12 5.26501C60.2405 5.15972 60.395 5.10148 60.555 5.10101H64.968L65.498 2.62601H60.42C59.7405 2.63296 59.0856 2.88103 58.572 3.32599C58.0502 3.75289 57.6885 4.34405 57.546 5.00299L56.146 11.585C56.0592 11.8699 56.0421 12.1714 56.0961 12.4642C56.1501 12.7571 56.2737 13.0327 56.4563 13.2679C56.639 13.503 56.8754 13.6909 57.1458 13.8157C57.4162 13.9405 57.7125 13.9985 58.01 13.985H63.089L63.62 11.508H59.207C59.1363 11.5121 59.0657 11.4986 59.0015 11.4688C58.9373 11.4389 58.8815 11.3937 58.839 11.337C58.7964 11.2784 58.7673 11.2109 58.754 11.1397C58.7407 11.0684 58.7434 10.9951 58.762 10.925L59.053 9.535H64.028L64.559 7.06H59.582L59.873 5.67099C59.9055 5.51099 59.9929 5.3674 60.12 5.26501Z" fill="white"/>
<path d="M44.022 13.981H46.502L48.913 2.62601H46.433L44.022 13.981Z" fill="white"/>
<path d="M57.173 2.62601H49.873L49.343 5.10199H51.748L49.867 13.981H52.347L54.228 5.10199H56.639L57.173 2.62601Z" fill="white"/>
<path d="M37.636 10.72C37.5811 10.6493 37.5435 10.5667 37.5261 10.4789C37.5087 10.391 37.5121 10.3003 37.536 10.214L38.904 3.75101C38.9505 3.55913 39.0576 3.38735 39.2095 3.26123C39.3613 3.13511 39.5499 3.06139 39.747 3.05099H45.198L45.85 0H39.577C38.7477 0.0110943 37.9494 0.317025 37.325 0.863007C36.6779 1.38673 36.2259 2.11306 36.042 2.92499L34.315 11.025C34.2158 11.3809 34.2022 11.7553 34.2754 12.1175C34.3486 12.4797 34.5064 12.8195 34.736 13.109C34.9565 13.3921 35.2417 13.6181 35.5676 13.7683C35.8934 13.9184 36.2506 13.9883 36.609 13.972H42.877L43.529 10.92H38.077C37.993 10.9234 37.9094 10.907 37.8328 10.8723C37.7562 10.8376 37.6888 10.7854 37.636 10.72Z" fill="white"/>
</g>
<defs>
<clipPath id="clip0">
<rect width="65" height="15" fill="white" transform="translate(0.5)"/>
</clipPath>
</defs>
</svg>
