<svg fill="none" viewBox="0 0 48 48" xmlns="http://www.w3.org/2000/svg"><clipPath id="a"><path d="m.5 0h47v48h-47z"/></clipPath><g clip-path="url(#a)"><path clip-rule="evenodd" d="m40.8455 26.6801c3.7436-5.3952 8.6355-18.90093 5.8167-24.29914-.7962-1.525224-2.1743-2.3487833-3.9854-2.38156182-2.0863-.03687578-4.7199.93008982-8.0517 2.95826182l-.0425.02765c-5.3715 3.79719-8.7195 8.19979-9.9923 13.12369-3.2801-3.4079-7.9019-5.7291-13.8158-6.91524l-.087-.01331c-5.52831-.55519-8.82771.49168-9.860734 3.11085-1.050223 2.6633.434054 6.694 4.410324 11.9929 2.93415 3.9078 6.61801 7.6619 9.21421 9.8898-2.8562 3.8925-3.695 7.8689-2.235 10.7432.9602 1.8899 2.8502 3.0412 5.0589 3.0812 5.5739.1024 9.969-6.0046 12.2233-11.748.1337-.3819.2378-.7737.3116-1.1719 5.1145 4.4159 8.7367 5.4197 10.8998 5.4576 2.2259.039 3.9247-.9434 4.6643-2.697 1.2749-3.0279-.4988-7.3608-4.5277-11.159zm-25.7194.482 4.3455-8.4671h2.7592l-5.9867 11.0208c-.4331.7668-1.0701 1.1503-1.9113 1.1503-.8296 0-1.2984-.3835-1.4063-1.1503l-1.3528-11.0208h2.7591zm5.0558 3.6558h2.1247l2.0711-9.8489h-2.1247zm7.993-2.9644 3.5311-6.8845h2.2411l-4.8636 8.9618c-.3521.6228-.8698.9346-1.5531.9353-.6833.0006-1.0644-.3111-1.1433-.9353l-1.0988-8.9618h2.2421zm7.8302-6.7502c-.313.1592-.5691.4135-.7325.7272l-4.6835 8.9875h2.2259l1.0978-2.1071h2.8431l.2195 2.1071h2.2259l-.9106-8.9875c-.0099-.148-.0551-.2915-.1315-.4181s-.182-.2327-.3076-.3091c-.2562-.1698-.5592-.2527-.865-.2367-.3412-.0023-.6779.0788-.9815.2367zm-1.0401 5.5784 1.3336-2.5505.2489 2.5505z" fill="#000" fill-rule="evenodd"/></g></svg>