<svg width="66" height="19" viewBox="0 0 66 19" fill="none" xmlns="http://www.w3.org/2000/svg">
<g clip-path="url(#clip0)">
<path d="M32.036 3.51799L26.506 14.17L25.495 3.51799H21.985L23.704 17.382C23.7201 17.5971 23.7802 17.8066 23.8804 17.9975C23.9806 18.1885 24.1189 18.357 24.2867 18.4924C24.4545 18.6279 24.6483 18.7276 24.8561 18.7853C25.0639 18.843 25.2813 18.8575 25.495 18.828C25.996 18.8428 26.4908 18.7146 26.9217 18.4586C27.3525 18.2025 27.7016 17.8291 27.928 17.382L35.548 3.51799H32.036Z" fill="white"/>
<path d="M13.985 18.756H17.312L20.548 3.51799H17.22L13.985 18.756Z" fill="white"/>
<path d="M12.871 0L6.065 13.1L4.82199 0H0.5L2.61898 17.05C2.63877 17.3143 2.71245 17.5717 2.83551 17.8064C2.95857 18.0411 3.12841 18.2482 3.33453 18.4147C3.54064 18.5813 3.77869 18.7039 4.03399 18.775C4.2893 18.8461 4.55645 18.8641 4.819 18.828C5.43541 18.846 6.04422 18.6884 6.57449 18.3736C7.10476 18.0588 7.53465 17.5998 7.81399 17.05L17.19 0H12.871Z" fill="white"/>
<path d="M41.662 3.72499C41.2602 3.46236 40.7854 3.33386 40.306 3.35799C39.7719 3.3546 39.2449 3.48052 38.77 3.72499C38.2799 3.97294 37.8793 4.3676 37.624 4.85399L30.28 18.754H33.767L35.488 15.493H39.939L40.284 18.754H43.773L42.35 4.85399C42.3354 4.62414 42.2652 4.40128 42.1453 4.20461C42.0255 4.00793 41.8596 3.84333 41.662 3.72499ZM36.819 12.81L38.907 8.86299L39.297 12.81H36.819Z" fill="white"/>
<path d="M64.94 7.758C63.74 7.764 62.54 7.758 61.348 7.758C60.177 7.758 59.008 7.758 57.838 7.758C58.038 6.61133 58.243 5.46401 58.453 4.31601C58.662 3.13901 58.863 1.957 59.079 0.779999C59.155 0.379999 59.171 0.230011 59.171 0.230011C58.166 0.230011 56.33 0.23999 55.505 0.23999C55.4431 0.462431 55.3993 0.689517 55.374 0.919006C55.107 2.52901 54.824 4.137 54.541 5.746C54.4243 6.41267 54.3067 7.07732 54.188 7.73999C53.388 7.73399 52.588 7.72801 51.788 7.72601C50.1693 7.72201 48.5523 7.72901 46.937 7.74701L46.576 7.75299C46.357 8.85299 46.131 10.126 45.92 11.314C47.136 11.322 48.252 11.332 49.368 11.339C50.7627 11.345 52.1567 11.349 53.55 11.351C53.308 12.7297 53.0667 14.1073 52.826 15.484C52.635 16.584 52.449 17.684 52.243 18.884C53.449 18.884 54.743 18.884 55.863 18.863L55.933 18.51C56.2343 16.9207 56.5257 15.3297 56.807 13.737C56.946 12.945 57.082 12.149 57.217 11.355C57.8957 11.355 58.5753 11.355 59.256 11.355C60.889 11.361 62.522 11.365 64.156 11.386C64.3863 11.3997 64.6172 11.3964 64.847 11.376C64.993 10.564 65.325 8.75899 65.501 7.76999C65.5 7.76599 65.355 7.756 64.94 7.758Z" fill="white"/>
</g>
<defs>
<clipPath id="clip0">
<rect width="65" height="19" fill="white" transform="translate(0.5)"/>
</clipPath>
</defs>
</svg>
