<svg fill="none" viewBox="0 0 52 52" xmlns="http://www.w3.org/2000/svg"><clipPath id="a"><path d="m.5 0h51v51h-51z"/></clipPath><g clip-path="url(#a)"><path clip-rule="evenodd" d="m26.2354.256592h.0016c10.5806.279965 19.1403 8.885388 19.2846 19.593708.0164 1.105-.1763 2.5236-.5188 4.169-.0297.1462-.0656.305-.103.4567-2.5234 10.0587-15.1749 22.7647-18.2303 25.8332-.3978.3996-.633.6357-.6619.6814v.0094l-.0016-.0047-.0039.0047v-.0094c-.0283-.0445-.2549-.2784-.6379-.6738-3.0191-3.1168-15.76061-16.2707-17.79154-25.8408-.01395-.0631-.02924-.1275-.04448-.1917-.02143-.0902-.04275-.18-.06008-.265-.34255-1.6446-.53528-3.0632-.51889-4.169.14357-10.70832 8.70399-19.313743 19.28229-19.593708zm-11.7385 29.145508v.7375.1001c0 .9056.2341 1.1738 1.1369 1.1738h.5696c.3004-.0328.5017-.0328.6351-.0328h.3683c.4682.0336.9371.0672 1.1041.0672 1.037 0 1.1712-.3018 1.1712-2.8841v-.6373c-.0671-1.1402-.0671-2.3805-.0671-3.6544v-.0001l-.0999-3.3869c0-1.5093.0328-2.917.0999-3.6888l.0336-.671c0-.7038-.3348-1.0057-1.0706-1.0057-.1588 0-.5702.0211-1.0671.0466h-.0003-.0001l-.4056.0207h-.167l-.7694-.0337c-.1334-.0336-.3347-.0336-.4681-.0336-.7694 0-1.037.2354-1.037.9728v.7039.9048l.0999 8.6515zm4.7345-15.9258c.1173-.208.1173-.4821.1173-1.8137l.0343-1.2403c0-.6373-.4026-.93917-1.2047-.93917-.6124 0-1.2818.02821-2.0074.05878l-.2016.00848c-1.271.06725-1.4716.26823-1.4716 1.54211v.0002c0 2.1457 0 2.1457.1662 2.4812.135.2683.5361.4028 1.1049.4028h.0004c1.305-.0337 1.305-.0337 1.6733-.0337.2333 0 .2333 0 .7357.0337h.0001c.4681.0344.7678-.0665.9363-.3347v-.0001c.0482-.0623.0865-.1117.1168-.1656zm11.4836 5.1611c.0335 1.2074-.3355 1.4421-2.2753 1.4421-.7358.0336-1.7073.5028-2.1754 1.0385-.3005.4027-.6688 1.4757-.6688 2.0458 0 .972.7694 2.515 1.506 3.0522.334.2683 1.1712.7038 1.4388.7375.501.1345 1.2383.2354 1.506.2682.568.0344.703.1345.703.5373l-.0335 1.7095c.0671.47.0671.7046.0671 1.0393 0 .6717-.0999 1.0072-.3356 1.1073-.2333.1337-.9363.2683-1.1712.2683-1.5714-.1009-2.3751-.1346-2.4422-.1346-1.3382-.2346-1.9406-.5364-3.3459-1.6094-.9036-.7046-1.4388-1.4756-1.8071-2.583-.6695-2.0114-.7694-2.6143-.7694-4.359 0-2.0122.6032-4.158 1.4732-5.2646.6016-.7719 1.4053-1.4421 2.3416-1.8784.7694-.4028 2.9112-.8047 4.0824-.8047 1.5388 0 1.9742.3026 1.9742 1.4756 0 .4028-.0336 1.2403-.0671 1.5422zm1.6886 10.7647v.7375h.0007v.1001c0 .9056.2334 1.1738 1.1369 1.1738h.5688c.3004-.0328.501-.0328.6352-.0328h.3683c.4682.0336.9379.0672 1.1041.0672 1.0378 0 1.1712-.3018 1.1712-2.8841v-.6373c-.0671-1.1402-.0671-2.3805-.0671-3.6543v-.0002l-.1007-3.3869c0-1.5093.0336-2.917.1007-3.6888l.0335-.671c0-.7038-.3355-1.0057-1.0705-1.0057-.1593 0-.5696.0211-1.0657.0465-.1308.0067-.2677.0137-.4075.0208h-.167l-.7693-.0337c-.1334-.0336-.3348-.0336-.4682-.0336-.7701 0-1.037.2354-1.037.9728v.7039.9048l.1007 8.6515zm4.6169-15.7601c.2349-.3027.2349-.3027.2349-1.9794l.0335-1.2403c0-.6373-.4026-.93917-1.2047-.93917-.6132 0-1.282.02821-2.0071.05879-.0666.00281-.1336.00564-.2011.00847-1.2727.06725-1.4724.26823-1.4724 1.54211 0 2.1459 0 2.1459.1669 2.4814.1343.2683.5369.4028 1.1049.4028h.0004c1.3043-.0337 1.3043-.0337 1.6726-.0337.234 0 .234 0 .7364.0337h.0001c.4682.0344.7678-.0665.9356-.3347z" fill="#000" fill-rule="evenodd"/></g></svg>