<svg width="59" height="30" viewBox="0 0 59 30" fill="none" xmlns="http://www.w3.org/2000/svg">
<path d="M1.90426 6.23442C2.40408 6.1974 2.40408 6.1974 2.5523 6.1974C3.12645 6.1974 3.23728 6.30847 3.34855 7.12569C3.42288 7.47854 3.51546 7.83094 3.60803 8.18379C3.66367 8.49961 3.71975 8.75923 3.75625 9.00056L3.92271 9.9846L3.9601 10.2072L4.12656 10.6899C4.23783 11.1168 4.3304 11.5994 4.36735 11.9893C4.42298 12.3421 4.49642 12.6575 4.58944 12.9363L4.70027 13.5488C4.7559 13.9016 4.88542 14.1617 4.99714 14.1617C5.1636 14.1617 5.42264 13.2334 5.62649 11.8969C5.68212 11.4879 5.73776 11.1542 5.79295 10.9316L6.23759 9.13081C6.29322 8.92651 6.31147 8.81499 6.36711 8.38809C6.44099 7.84967 6.44099 7.84967 6.51532 7.60835L6.62659 7.14442L6.71917 6.71708C6.79305 6.30892 7.01559 6.10461 7.40415 6.10461C7.55236 6.10461 7.77446 6.1229 7.997 6.16037C8.16346 6.17866 8.31167 6.1974 8.44164 6.1974H8.51552C8.8115 6.17866 9.05274 6.16037 9.07098 6.16037C9.44129 6.16037 9.66384 6.34594 9.66384 6.64303C9.66384 6.8286 9.38566 8.22081 9.2192 8.77796C9.14487 9.07505 9.07054 9.3534 9.0336 9.61302L8.8115 10.8942C8.53377 12.157 8.49683 12.3056 8.03394 13.8459C7.97831 14.0502 7.92267 14.2732 7.88528 14.5141C7.84834 14.7554 7.86748 14.6439 7.83009 14.8669C7.79271 15.1453 7.73752 15.4424 7.68188 15.7769C7.51497 16.4081 7.34851 17.0019 7.16336 17.5773C6.92257 18.5243 6.8113 18.6354 5.82989 18.6541L5.36656 18.6724C5.16271 18.6912 4.95931 18.6912 4.81109 18.6912C4.45948 18.6912 3.75536 18.6537 3.45893 18.6171C2.93996 18.5614 2.79175 18.3196 2.49577 17.0576C2.38406 16.612 2.38406 16.612 2.23629 15.7395C2.1811 15.4424 2.03244 14.8669 1.8099 13.9944C1.5878 13.1031 1.47698 12.6205 1.29182 11.3773C1.16186 10.6341 0.902819 9.5015 0.532065 8.01651C0.421239 7.57087 0.34691 7.18145 0.328662 6.82815C0.291275 6.45702 0.458181 6.23398 0.7733 6.17866L1.90426 6.23442Z" fill="white"/>
<path d="M10.0617 17.8744V17.4662L10.0982 15.9995L10.0426 11.2095V10.7086V10.3183C10.0426 9.91012 10.1908 9.78031 10.6168 9.78031C10.6911 9.78031 10.8019 9.78031 10.8762 9.7986L11.3022 9.81733H11.3948C11.7651 9.7986 12.0989 9.78031 12.2097 9.78031C12.617 9.78031 12.8026 9.94759 12.8026 10.337L12.7839 10.709C12.7469 11.1359 12.7282 11.9152 12.7282 12.7507L12.7839 14.6261C12.7839 15.3313 12.7839 16.0178 12.8213 16.6495V17.0019C12.8213 18.4311 12.7474 18.5984 12.1732 18.5984C12.0806 18.5984 11.8212 18.5801 11.5621 18.5613H11.3578C11.2839 18.5613 11.1727 18.5614 11.0058 18.5801H10.6911C10.1908 18.5801 10.0613 18.4315 10.0613 17.9302V17.8744H10.0617ZM12.7478 7.64538C12.7478 8.57367 12.7478 8.57367 12.6179 8.7405C12.5253 8.88905 12.3588 8.9448 12.0998 8.92607C11.8216 8.90733 11.8216 8.90733 11.6921 8.90733C11.4882 8.90733 11.4882 8.90733 10.7659 8.92607C10.4512 8.92607 10.2282 8.85202 10.1548 8.70303C10.0622 8.51746 10.0622 8.51746 10.0622 7.32911C10.0622 6.62386 10.173 6.51234 10.8771 6.47532C11.3213 6.45703 11.7295 6.43829 12.0998 6.43829C12.544 6.43829 12.7665 6.60557 12.7665 6.95797L12.7478 7.64538Z" fill="white"/>
<path d="M14.5829 9.87309C14.6568 9.89183 14.6942 9.89183 14.7124 9.89183L15.6573 9.83607C15.7873 9.83607 15.9724 10.0399 16.065 10.3187C16.1763 10.6528 16.2315 10.8942 16.3801 11.8037L16.4723 12.2119L16.5279 12.4162C16.6018 12.6945 16.6761 12.9733 16.7504 13.2704L16.9169 14.0314L16.973 14.2545C17.0282 14.4954 17.0656 14.5886 17.1581 14.5886C17.2329 14.5886 17.2881 14.5145 17.3064 14.3847L17.3989 13.8093C17.4546 13.5863 17.4915 13.3449 17.5284 13.0849C17.5841 12.844 17.621 12.5469 17.6954 12.1936C17.844 11.6182 17.8627 11.5437 17.844 11.4513L17.9183 11.0244C17.9735 10.8018 18.0292 10.5792 18.0661 10.3749C18.14 10.0596 18.3812 9.83651 18.659 9.83651C18.8259 9.83651 19.0293 9.83651 19.2701 9.8548C19.3626 9.87354 19.437 9.87354 19.4739 9.87354H19.6408C20.0111 9.83651 20.2893 9.81778 20.3814 9.81778C20.604 9.81778 20.7704 10.0033 20.7704 10.2451C20.7704 10.4307 20.2702 12.6954 20.1037 13.2151C20.0111 13.4935 19.3996 15.9817 19.307 16.3716C19.2331 16.6874 18.7702 18.2282 18.7141 18.3205C18.529 18.5806 18.3625 18.6729 17.9735 18.6729L17.1586 18.6546L16.3619 18.6729C15.9911 18.6729 15.769 18.5431 15.6213 18.209C15.5839 18.1537 15.5839 18.1537 15.4918 17.8566C15.4735 17.7825 15.4174 17.6706 15.3431 17.5037C15.3062 17.4114 15.251 17.2254 15.1766 16.947C15.1023 16.7427 15.1023 16.7427 15.0097 16.4456C14.862 16.0375 14.732 15.6846 14.6577 15.3505C14.6025 15.202 14.5468 15.0347 14.4908 14.8678C14.2874 14.2549 14.2687 14.2179 14.12 13.6982C14.0831 13.5122 14.0831 13.5122 13.8797 12.9738C13.6015 12.194 13.2499 10.7461 13.2499 10.3932C13.2499 9.94759 13.4533 9.8548 14.4169 9.8548L14.5829 9.87309Z" fill="white"/>
<path d="M23.2354 9.83604C23.4575 9.81731 23.6057 9.8173 23.6239 9.8173C23.6983 9.8173 23.8091 9.8918 23.8465 9.94756C23.8647 9.98458 23.8647 9.98458 23.8834 10.523C23.8834 10.6158 23.9391 10.6715 24.0316 10.6715C24.106 10.6715 24.106 10.6715 24.9205 10.0221C25.1612 9.83649 25.4394 9.74326 25.8102 9.74326C26.3105 9.74326 26.4952 9.92927 26.4952 10.4119V10.7835C26.4765 11.0619 26.4765 11.2845 26.4765 11.3589V12.1753C26.4765 12.7694 26.31 12.9367 25.7172 12.9737C25.2351 12.9925 24.5871 13.3266 24.2537 13.7348C23.9573 14.0876 23.8465 14.4775 23.8465 15.0895C23.8465 15.3308 23.8465 15.3308 23.9021 16.0182V17.0576L23.9208 17.9676C23.9208 18.3762 23.68 18.6358 23.3093 18.6358C23.3093 18.6358 23.198 18.6358 23.0124 18.6171L21.7902 18.6358C21.3825 18.6358 21.1969 18.3762 21.1969 17.8186C21.1969 17.6888 21.1969 17.6888 21.2525 16.8167L21.2338 15.5168L21.2525 14.8486C21.2895 13.2521 21.2895 13.2521 21.2895 13.0103C21.3082 12.6392 21.3269 12.3238 21.3269 12.082V11.5994C21.3086 11.2465 21.3086 10.8384 21.3086 10.6524C21.3086 10.0399 21.5125 9.79857 21.9753 9.79857C22.1423 9.79857 22.1423 9.79857 22.7716 9.81686C22.9937 9.83559 23.1606 9.83559 23.198 9.83559H23.2354V9.83604Z" fill="white"/>
<path d="M32.902 15.0896L32.55 15.1083L31.6798 15.0896L30.568 15.1083L29.9943 15.0713C29.6796 15.0713 29.4202 15.2386 29.4202 15.4429C29.4202 15.6655 29.7905 15.963 30.402 16.2039C30.5315 16.2601 31.3091 16.3341 31.7911 16.3341C32.4392 16.3341 32.6617 16.2784 33.8474 15.9072C33.9395 15.8698 34.0512 15.8515 34.1625 15.8515C34.4959 15.8515 34.6628 16.0745 34.6628 16.5567C34.6628 16.6125 34.6441 17.3922 34.6254 17.5037C34.6072 17.8941 34.4402 18.1167 33.9769 18.3205C33.2915 18.6176 32.5322 18.7661 31.6247 18.7661C29.8648 18.7661 28.8829 18.4878 28.0311 17.7451C27.4938 17.2994 26.9384 16.4269 26.7902 15.8144C26.5859 14.9602 26.5676 14.8487 26.5676 14.3477C26.5676 13.2339 26.7719 12.4171 27.2161 11.6561C28.0315 10.3009 29.1242 9.66928 30.6428 9.66928C31.8654 9.66928 32.607 9.92934 33.3658 10.6163C33.94 11.1364 34.4403 11.9345 34.5328 12.5099C34.5885 12.7508 34.5885 12.7508 34.6441 13.0296C34.718 13.3079 34.7367 13.4382 34.7367 13.7536C34.7367 14.4401 34.6441 14.7746 34.4407 14.9227C34.3107 15.0155 34.1069 15.09 33.9774 15.09H32.902V15.0896ZM31.2535 13.1594C31.7537 13.1781 31.9945 13.0662 31.9945 12.8253C31.9945 12.3239 31.346 11.8408 30.6793 11.8408C30.0313 11.8408 29.3641 12.3052 29.3458 12.7691C29.3276 13.0474 29.6423 13.196 30.1982 13.1777L31.2535 13.1594Z" fill="white"/>
<path fill-rule="evenodd" clip-rule="evenodd" d="M47.1701 0.437653H47.171C53.2063 0.597349 58.0889 5.506 58.1712 11.6141C58.1806 12.2445 58.0706 13.0536 57.8752 13.9922C57.8583 14.0756 57.8379 14.1662 57.8165 14.2527C56.3771 19.9903 49.1605 27.238 47.4177 28.9883C47.1908 29.2162 47.0567 29.3509 47.0402 29.377V29.3823L47.0393 29.3797L47.037 29.3823V29.377C47.0209 29.3516 46.8916 29.2182 46.6732 28.9927C44.951 27.2148 37.6831 19.7116 36.5246 14.2527C36.5167 14.2167 36.508 14.18 36.4993 14.1434L36.4993 14.1434C36.487 14.0919 36.4749 14.0407 36.465 13.9922C36.2696 13.0541 36.1597 12.2449 36.169 11.6141C36.2509 5.506 41.1339 0.597349 47.1679 0.437653H47.1701ZM40.4743 17.0626V17.4832V17.5403C40.4743 18.0569 40.6078 18.2099 41.1228 18.2099H41.4477C41.619 18.1911 41.7339 18.1911 41.81 18.1911H41.81H42.0201C42.2871 18.2103 42.5546 18.2295 42.6499 18.2295C43.2414 18.2295 43.3179 18.0573 43.3179 16.5844V16.2208C43.2796 15.5704 43.2796 14.863 43.2796 14.1363V14.1363L43.2227 12.2043C43.2227 11.3434 43.2414 10.5404 43.2796 10.1002L43.2988 9.71743C43.2988 9.31596 43.1078 9.14377 42.6881 9.14377C42.5975 9.14377 42.3627 9.15581 42.079 9.17036L41.8478 9.18213H41.7526L41.3137 9.16295C41.2376 9.14377 41.1228 9.14377 41.0467 9.14377C40.6078 9.14377 40.4552 9.27804 40.4552 9.69869V10.1002V10.6163L40.5122 15.5512L40.4743 17.0626ZM43.1749 7.97823C43.2418 7.85958 43.2418 7.70324 43.2418 6.94371L43.2614 6.23623C43.2614 5.87268 43.0317 5.70049 42.5742 5.70049C42.2249 5.70049 41.8431 5.71658 41.4292 5.73402L41.3142 5.73885C40.5892 5.77722 40.4748 5.89186 40.4748 6.61852V6.61863C40.4748 7.84256 40.4748 7.84256 40.5696 8.03393C40.6466 8.18693 40.8753 8.26366 41.1998 8.26366L41.2004 8.26364C41.9444 8.24448 41.9445 8.24447 42.1545 8.24447C42.2875 8.24447 42.2876 8.24448 42.5741 8.26365L42.5742 8.26366C42.8412 8.28328 43.0122 8.22574 43.1083 8.07274C43.1358 8.0372 43.1576 8.00898 43.1749 7.97823ZM49.7253 10.9223C49.7444 11.6111 49.5339 11.7449 48.4274 11.7449C48.0077 11.7641 47.4536 12.0317 47.1865 12.3373C47.0152 12.567 46.8051 13.179 46.8051 13.5042C46.8051 14.0587 47.244 14.9388 47.6641 15.2452C47.8546 15.3983 48.3322 15.6467 48.4849 15.6659C48.7706 15.7426 49.1912 15.8002 49.3439 15.8189C49.6679 15.8385 49.7449 15.8956 49.7449 16.1254L49.7257 17.1005C49.764 17.3686 49.764 17.5024 49.764 17.6933C49.764 18.0765 49.707 18.2679 49.5726 18.325C49.4396 18.4012 49.0385 18.478 48.9046 18.478C48.0082 18.4204 47.5497 18.4012 47.5115 18.4012C46.7481 18.2674 46.4045 18.0952 45.6029 17.4832C45.0875 17.0813 44.7822 16.6415 44.5721 16.0098C44.1903 14.8625 44.1333 14.5186 44.1333 13.5234C44.1333 12.3756 44.4773 11.1516 44.9736 10.5204C45.3168 10.0801 45.7752 9.69782 46.3093 9.44891C46.7481 9.21918 47.9699 8.9899 48.638 8.9899C49.5157 8.9899 49.764 9.16253 49.764 9.83165C49.764 10.0614 49.7449 10.5391 49.7257 10.7113L49.7253 10.9223ZM50.6885 17.0626V17.4832H50.6889V17.5403C50.6889 18.0569 50.822 18.2099 51.3374 18.2099H51.6619C51.8332 18.1911 51.9476 18.1911 52.0242 18.1911H52.0242H52.2343C52.5013 18.2103 52.7693 18.2295 52.8641 18.2295C53.456 18.2295 53.5321 18.0573 53.5321 16.5844V16.2208C53.4939 15.5704 53.4939 14.8629 53.4939 14.1363L53.4364 12.2043C53.4364 11.3434 53.4556 10.5404 53.4939 10.1002L53.513 9.71743C53.513 9.31596 53.3216 9.14377 52.9023 9.14377C52.8115 9.14377 52.5773 9.15578 52.2943 9.1703C52.2197 9.17413 52.1417 9.17813 52.062 9.18213H51.9668L51.5279 9.16295C51.4518 9.14377 51.337 9.14377 51.2609 9.14377C50.8216 9.14377 50.6694 9.27804 50.6694 9.69869V10.1002V10.6163L50.7268 15.5512L50.6885 17.0626ZM53.389 7.9781C53.456 7.85947 53.456 7.70296 53.456 6.94371L53.4752 6.23623C53.4752 5.87268 53.2455 5.70049 52.788 5.70049C52.4382 5.70049 52.0567 5.71658 51.6431 5.73402C51.6051 5.73563 51.5669 5.73724 51.5284 5.73885C50.8024 5.77722 50.6885 5.89186 50.6885 6.61852C50.6885 7.84256 50.6885 7.84256 50.7837 8.03393C50.8603 8.18693 51.09 8.26366 51.414 8.26366L51.4145 8.26364C52.1582 8.24448 52.1582 8.24447 52.3682 8.24447C52.5017 8.24447 52.5018 8.24448 52.7882 8.26365L52.7884 8.26366C53.0554 8.28328 53.2264 8.22574 53.3221 8.07274C53.3497 8.03715 53.3716 8.0089 53.389 7.9781Z" fill="white"/>
</svg>
