<svg xmlns="http://www.w3.org/2000/svg" width="185" height="185" fill="none"><path d="M88.144 43.862c-4.714.399-8.869-3.08-9.249-7.755l-1.653-19.411c-.402-4.675 3.105-8.797 7.819-9.174 4.714-.399 8.869 3.08 9.249 7.755l1.653 19.411c.402 4.676-3.105 8.797-7.819 9.174zm77.992 47.331l-19.571 1.64c-4.714.399-8.869-3.08-9.249-7.756-.402-4.675 3.105-8.797 7.819-9.174l19.571-1.64c4.714-.399 8.87 3.08 9.249 7.755a8.52 8.52 0 0 1-7.819 9.174zm-14.968 55.13c-2.19.177-4.446-.465-6.256-1.972l-14.991-12.564c-3.619-3.036-4.066-8.398-1.005-11.966a8.6 8.6 0 0 1 12.064-.997l14.991 12.564c3.619 3.036 4.066 8.398 1.005 11.966-1.519 1.795-3.641 2.792-5.831 2.991l.023-.022zM49.203 60.88c-2.189.177-4.446-.465-6.256-1.972l-14.99-12.564c-3.619-3.036-4.066-8.398-1.005-11.965 3.061-3.59 8.467-4.033 12.064-.997l14.991 12.564c3.619 3.036 4.066 8.398 1.005 11.966-1.519 1.795-3.642 2.792-5.831 2.991l.022-.022zm80.204-6.692c-2.189.177-4.446-.465-6.255-1.972-3.619-3.036-4.066-8.398-1.006-11.966l12.668-14.868c3.061-3.59 8.467-4.033 12.064-.997s4.066 8.398 1.005 11.966l-12.667 14.868c-1.519 1.795-3.642 2.792-5.831 2.991l.022-.022z" fill="#ffc612"/><path d="M79.587 177.5H48.243C27.711 177.5 11 160.925 11 140.562s16.711-36.938 37.243-36.938c12.422 0 23.883 6.093 30.764 16.131 16.264-.377 29.691 12.763 29.691 28.872 0 15.932-13.069 28.873-29.11 28.873zm-31.344-62.199c-14.03 0-25.469 11.323-25.469 25.261s11.416 25.26 25.469 25.26h31.344c9.562 0 17.337-7.711 17.337-17.195s-7.775-17.195-17.337-17.195c-.916 0-1.854.067-2.77.222l-4.133.665-1.988-3.656c-4.446-8.221-13.047-13.34-22.453-13.34v-.022z" fill="#9bd3ff"/><path d="M130.703 85.764c0-21.383-17.538-38.777-39.097-38.777S52.51 64.381 52.51 85.764c0 3.9.603 7.667 1.676 11.212 11.439.776 21.827 6.625 28.261 15.976 8.691-.199 16.555 3.479 22.005 9.395 15.259-5.295 26.251-19.676 26.251-36.583z" fill="#ffc612"/></svg>