<svg viewBox="0 0 30 30" xmlns="http://www.w3.org/2000/svg"><path clip-rule="evenodd" d="m21.7688 17.9775c-.3725-.1862-2.1988-1.0837-2.5388-1.2087-.34-.1238-.5875-.185-.8363.1875-.2475.37-.9587 1.2075-1.1749 1.455-.2176.2487-.4338.2787-.8051.0937-.3712-.1875-1.5687-.5787-2.9874-1.8437-1.1038-.985-1.85-2.2013-2.0663-2.5738-.2162-.3712-.0237-.5725.1625-.7575.1675-.1662.3712-.4337.5575-.65.1862-.2175.2475-.3725.3713-.6212.125-.2475.0625-.4638-.0313-.65-.0925-.1863-.835-2.01503-1.145-2.75878-.3012-.72375-.6075-.625-.835-.6375-.2175-.01-.465-.0125-.7125-.0125s-.65.0925-.99.465c-.34125.37125-1.3 1.27-1.3 3.09878 0 1.8275 1.33 3.5937 1.51625 3.8425.18625.2475 2.61875 4 6.34495 5.6087.8876.3825 1.5788.6113 2.1176.7813.8899.2837 1.7.2437 2.34.1475.7125-.1063 2.1975-.8988 2.5075-1.7663.3087-.8675.3087-1.6112.2162-1.7662s-.34-.2475-.7125-.4338zm-6.7775 9.2538h-.0051c-2.2132.0004-4.3857-.5946-6.28995-1.7225l-.45-.2675-4.6775 1.2275 1.24875-4.56-.29375-.4675c-1.23733-1.9696-1.89213-4.2491-1.88875-6.575.0025-6.81253 5.545-12.35503 12.3613-12.35503 3.2999 0 6.4025 1.2875 8.735 3.6225 1.1504 1.14573 2.0623 2.50821 2.6828 4.00863.6205 1.5004.9373 3.109.9322 4.7326-.0025 6.8125-5.545 12.3563-12.355 12.3563zm10.515-22.87128c-1.3773-1.38635-3.016-2.48558-4.8212-3.234s-3.7409-1.13114583-5.6951-1.1259993c-8.1925 0-14.8625 6.6687493-14.865 14.8649793-.00125 2.62.6825 5.1775 1.98375 7.4313l-2.10875 7.7037 7.88-2.0675c2.1798 1.1877 4.6226 1.81 7.105 1.81h.0063c8.1925 0 14.8625-6.6687 14.865-14.8662.006-1.9534-.3753-3.8887-1.122-5.69374-.7467-1.80508-1.8438-3.4442-3.228-4.82254z" fill-rule="evenodd"/></svg>